<svg xmlns="http://www.w3.org/2000/svg" viewBox="0 0 24 24">
  <defs>
    <style>
      .a{fill:none;stroke:#c0c0c0;}
    </style>
  </defs>
  <path class="a" d="M16.5 29C23.4 29 29 23.4 29 16.5 29 9.6 23.4 4 16.5 4 9.6 4 4 9.6 4 16.5 4 23.4 9.6 29 16.5 29L16.5 29ZM16.5 28C22.85 28 28 22.85 28 16.5 28 10.15 22.85 5 16.5 5 10.15 5 5 10.15 5 16.5 5 22.85 10.15 28 16.5 28L16.5 28ZM16.48 21C13 21 11 23 11 23L11 22C11 22 13 20 16.48 20 19.96 20 22 22 22 22L22 23C22 23 19.96 21 16.48 21L16.48 21ZM20.62 9.97L20.06 10.8 23.38 13.03 23.94 12.2 20.62 9.97 20.62 9.97ZM9.06 12.2L9.62 13.03 12.94 10.8 12.38 9.97 9.06 12.2 9.06 12.2ZM12 15C12.55 15 13 14.55 13 14 13 13.45 12.55 13 12 13 11.45 13 11 13.45 11 14 11 14.55 11.45 15 12 15L12 15ZM21 15C21.55 15 22 14.55 22 14 22 13.45 21.55 13 21 13 20.45 13 20 13.45 20 14 20 14.55 20.45 15 21 15L21 15Z">
  </path>
</svg>
