<svg id="Line" xmlns="http://www.w3.org/2000/svg" viewBox="0 0 100 112"><defs><style>.cls-1{fill:none;stroke:#4550e5;stroke-linecap:round;stroke-linejoin:round;}</style></defs><title>01- hamburger</title><g id="Icons"><path class="cls-1" d="M7.86,54.56A9,9,0,0,0,14,70.14H86a9,9,0,0,0,6.14-15.58"/><path class="cls-1" d="M13.55,96.69A4.28,4.28,0,0,0,17,98.43H83a4.29,4.29,0,0,0,4.29-4.29v-6H16"/><path class="cls-1" d="M86,88.14a9,9,0,0,0,0-18H14a9,9,0,0,0-9,9"/><path class="cls-1" d="M86,70.14H14a9,9,0,0,0-3.86.87v5.35a5.14,5.14,0,0,0,10.29,0,2.57,2.57,0,1,1,5.14,0,7.71,7.71,0,0,0,15.43,0,2.57,2.57,0,1,1,5.14,0,5.14,5.14,0,0,0,10.29,0,2.57,2.57,0,1,1,5.14,0,7.71,7.71,0,0,0,15.43,0,2.57,2.57,0,1,1,5.14,0,2.57,2.57,0,0,0,5.14,0V70.23A9.13,9.13,0,0,0,86,70.14Z"/><path class="cls-1" d="M17.86,92.86a3.86,3.86,0,0,1-7.71,0c0-2.13,3.86-7.72,3.86-7.72S17.86,90.73,17.86,92.86Z"/><path class="cls-1" d="M77,51.42c.54,3.93,5.38,7.15,9,7.15,4.26,0,6.43-2.17,6.43-6.43s-2.75-6.39-5.14-7.72H12.72c-2.39,1.33-5.14,3.45-5.14,7.72S9.74,58.57,14,58.57c3.62,0,7.92-3.79,8.75-7.15A10.26,10.26,0,0,0,32,57.28a9.06,9.06,0,0,0,7.15-3C41.09,58,45.55,59.86,50,59.86"/><path class="cls-1" d="M12.72,44.43c0-20.59,16.69-30.86,37.28-30.86S87.29,23.84,87.29,44.43Z"/><path class="cls-1" d="M43.14,44.43v7.28a3,3,0,0,0,3,3A3.86,3.86,0,0,1,50,58.57v.22a4.5,4.5,0,0,0,9,0v-.22a3.86,3.86,0,0,1,3.86-3.86A5.15,5.15,0,0,1,68,59.86v.64a4.5,4.5,0,1,0,9,0V44.43Z"/><circle class="cls-1" cx="70.57" cy="32.86" r="1.07"/><circle class="cls-1" cx="60.29" cy="25.14" r="1.07"/><circle class="cls-1" cx="39.71" cy="25.14" r="1.07"/><circle class="cls-1" cx="29.43" cy="32.86" r="1.07"/><circle class="cls-1" cx="50" cy="30.29" r="1.07"/><path class="cls-1" d="M5,79.14A9,9,0,0,0,12.21,88"/></g></svg>