<svg id="Duotone" xmlns="http://www.w3.org/2000/svg" xmlns:xlink="http://www.w3.org/1999/xlink" viewBox="0 0 100 112"><defs><style>.cls-1,.cls-12,.cls-7,.cls-9{fill:none;}.cls-2{fill:#f0f2ff;}.cls-3{clip-path:url(#clip-path);}.cls-10,.cls-4{fill:#fff;}.cls-4,.cls-6,.cls-7,.cls-9{stroke:#4550e5;}.cls-12,.cls-4,.cls-6,.cls-7{stroke-linecap:round;stroke-linejoin:round;}.cls-11,.cls-5,.cls-6{fill:#d6daff;}.cls-5{opacity:0.3;}.cls-8{fill:#4550e5;}.cls-9{stroke-miterlimit:10;}.cls-12{stroke:#fff;}</style><clipPath id="clip-path"><circle class="cls-1" cx="50.49" cy="56" r="40"/></clipPath></defs><title>15- mobile-application-language-translation-2</title><g id="Icons"><g id="Background"><circle class="cls-2" cx="50.49" cy="56" r="40"/></g><g id="Scene"><g class="cls-3"><rect class="cls-4" x="30.99" y="12" width="61.5" height="90"/><rect class="cls-5" x="38.49" y="43" width="40" height="19" rx="4" ry="4"/><rect class="cls-6" x="37.99" y="41" width="40" height="19" rx="4" ry="4"/><rect class="cls-7" x="37.99" y="41" width="40" height="19" rx="4" ry="4"/><polyline class="cls-7" points="41.48 41 57.98 26 74.48 41"/><rect class="cls-7" x="40.49" y="43.5" width="35" height="14" rx="2" ry="2"/><path class="cls-8" d="M48.23,47.15a.66.66,0,1,1,1.31,0V49h2.73V47.15a.65.65,0,1,1,1.3,0v4.94a.65.65,0,1,1-1.3,0V50.2H49.54v1.89a.66.66,0,1,1-1.31,0Z"/><path class="cls-8" d="M58.63,50.41a2.25,2.25,0,1,1-4.49,0,2.25,2.25,0,1,1,4.49,0Zm-3.24,0c0,.6.31,1.26,1,1.26s1-.66,1-1.26-.3-1.27-1-1.27S55.39,49.81,55.39,50.41Z"/><path class="cls-8" d="M59.14,46.72a.63.63,0,1,1,1.25,0v5.36a.63.63,0,1,1-1.25,0Z"/><path class="cls-8" d="M65.37,52c0,.33,0,.82-.6.82-.37,0-.52-.2-.6-.53a1.51,1.51,0,0,1-1.19.58,2.19,2.19,0,0,1-2.07-2.41A2.24,2.24,0,0,1,63,48a1.43,1.43,0,0,1,1.19.57.59.59,0,0,1,.6-.52c.6,0,.6.5.6.82Zm-2.22-.28c.65,0,1-.66,1-1.26s-.31-1.27-1-1.27-1,.67-1,1.27S62.47,51.67,63.15,51.67Z"/><path class="cls-8" d="M66.5,52.14a.68.68,0,0,1,1.36,0,.68.68,0,0,1-1.36,0Zm0-5.13a.58.58,0,0,1,.63-.59.59.59,0,0,1,.62.59v3.35a.59.59,0,0,1-.62.59.58.58,0,0,1-.63-.59Z"/><path class="cls-4" d="M36.74,74,31.5,68.37a4.32,4.32,0,0,0-1.29-.91l-6.28-3c-.74-.81-.88.35-1.7,1.1s-3.16,4-2.42,4.78l6.58,7.07h0l0,1.76a2,2,0,0,0,4,.1,2,2,0,0,0,1.35.21,2,2,0,0,0,1.58-2.34l-.24-1.25.72.78a2,2,0,0,0,3-2.69Z"/><path class="cls-9" d="M28.88,75.41l.48,2.5a2,2,0,0,0,3.93-.76"/><line class="cls-9" x1="29.95" y1="72.58" x2="33.77" y2="76.68"/><line class="cls-7" x1="26.12" y1="69.46" x2="24.49" y2="68.65"/><path class="cls-10" d="M20.85,91.75,10.62,89v0c.52-13,2-26.92,20-32.53l1-.32a2,2,0,1,1,1.2,3.82l-1,.32c-4.54,1.43-7.85,3.41-9.54,7.83-2.61,6.67,1.61,4.92,3,2.66L28.41,66a2,2,0,0,1,3.37,2.16c-4.21,9.76-3.88,11.84-7,14.8C22.5,85.14,22.12,87.09,20.85,91.75Z"/><path class="cls-7" d="M20.85,91.75,10.62,89v0c.52-13,2-26.92,20-32.53l1-.32a2,2,0,1,1,1.2,3.82l-1,.32c-4.54,1.43-7.85,3.41-9.54,7.83-2.61,6.67,1.61,4.92,3,2.66L28.41,66a2,2,0,0,1,3.37,2.16c-4.21,9.76-3.88,11.84-7,14.8C22.5,85.14,22.12,87.09,20.85,91.75Z"/><rect class="cls-10" x="28.14" y="55" width="37.34" height="20.27" rx="3.2" ry="3.2"/><rect class="cls-11" x="36.6" y="51.89" width="20.27" height="26.5" transform="translate(111.87 18.4) rotate(90)"/><polygon class="cls-10" points="33.48 55 33.48 75.27 33.55 75.27 53.82 55 33.48 55"/><rect class="cls-7" x="28.14" y="55" width="37.34" height="20.27" rx="3.2" ry="3.2"/><rect class="cls-7" x="33.48" y="55" width="26.5" height="20.27"/><line class="cls-7" x1="62.28" y1="64.07" x2="62.28" y2="69.4"/><path class="cls-8" d="M62.28,60.87a.53.53,0,0,0-.53.53.53.53,0,0,0,.53.53h0a.53.53,0,0,0,.54-.53.54.54,0,0,0-.54-.53Z"/><path class="cls-4" d="M21.87,72.55c.8.67,2.62-.49,3.43-1.83L28.41,66a2,2,0,0,1,3.37,2.16c-4.21,9.76-3.88,11.84-7,14.8-2.31,2.2-2.69,4.15-4,8.81l-5-1.36"/><path class="cls-8" d="M37.38,62.87a.66.66,0,1,1,1.32,0v1.86h2.77V62.87a.66.66,0,1,1,1.32,0v5a.66.66,0,1,1-1.32,0V66H38.7v1.92a.66.66,0,1,1-1.32,0Z"/><path class="cls-8" d="M44.56,66.58a1.1,1.1,0,0,0,1.2.92c.65,0,1.1-.51,1.43-.51a.55.55,0,0,1,.52.54c0,.55-1.12,1.08-2.06,1.08a2.31,2.31,0,0,1-2.38-2.44A2.28,2.28,0,1,1,47.82,66c0,.38-.17.56-.55.56Zm2-.84a1,1,0,0,0-1-1,1,1,0,0,0-1,1Z"/><path class="cls-8" d="M48.25,62.42a.64.64,0,0,1,.63-.7.64.64,0,0,1,.64.7v5.43a.64.64,0,0,1-.64.7.64.64,0,0,1-.63-.7Z"/><path class="cls-8" d="M50.2,62.42a.64.64,0,0,1,.64-.7.64.64,0,0,1,.63.7v5.43a.64.64,0,0,1-.63.7.64.64,0,0,1-.64-.7Z"/><path class="cls-8" d="M56.53,66.17a2.28,2.28,0,1,1-4.54,0,2.28,2.28,0,1,1,4.54,0Zm-3.27,0c0,.6.31,1.27,1,1.27s1-.67,1-1.27-.3-1.3-1-1.3S53.26,65.56,53.26,66.17Z"/><polyline class="cls-7" points="54.48 57 57.98 57 57.98 60"/><polyline class="cls-7" points="38.98 57 35.48 57 35.48 60"/><polyline class="cls-7" points="54.48 73 57.98 73 57.98 70"/><polyline class="cls-7" points="38.98 73 35.48 73 35.48 70"/><line class="cls-12" x1="59.49" y1="81" x2="59.49" y2="86"/><line class="cls-12" x1="66.55" y1="78" x2="69.82" y2="81.78"/><line class="cls-12" x1="69.94" y1="71.11" x2="74.89" y2="71.84"/><line class="cls-12" x1="52.42" y1="78" x2="49.15" y2="81.78"/><circle class="cls-6" cx="57.99" cy="26" r="2.5"/></g></g></g></svg>