<svg id="Duotone" xmlns="http://www.w3.org/2000/svg" xmlns:xlink="http://www.w3.org/1999/xlink" viewBox="0 0 100 112"><defs><style>.cls-1,.cls-3,.cls-6{fill:none;}.cls-2{fill:#f0f2ff;}.cls-10,.cls-3,.cls-4,.cls-6,.cls-7{stroke:#4550e5;stroke-linejoin:round;}.cls-10,.cls-3,.cls-4{stroke-linecap:round;}.cls-4,.cls-5{fill:#fff;}.cls-10,.cls-7,.cls-9{fill:#d6daff;}.cls-8{clip-path:url(#clip-path);}.cls-11{fill:#4550e5;}</style><clipPath id="clip-path"><circle class="cls-1" cx="50" cy="56" r="40"/></clipPath></defs><title>18- team-idea-brainstorm-2</title><g id="Icons"><g id="New_Symbol_14-27" data-name="New Symbol 14"><path class="cls-2" d="M90,56A40,40,0,1,0,13.56,72.5H86.44A39.85,39.85,0,0,0,90,56Z"/><line class="cls-3" x1="11" y1="72.5" x2="89" y2="72.5"/><line class="cls-3" x1="6.5" y1="72.5" x2="9" y2="72.5"/><line class="cls-3" x1="91" y1="72.5" x2="93.5" y2="72.5"/></g><path class="cls-4" d="M72.61,13A2.41,2.41,0,0,1,75,15.41V35.59A2.41,2.41,0,0,1,72.61,38H70v3.6a1,1,0,0,1-1.71.71L64,38H53l-2.66,4.17a1,1,0,0,1-1.68,0L46,38H35l-4.31,4.31A1,1,0,0,1,29,41.6V38H26.41A2.41,2.41,0,0,1,24,35.59V15.41A2.41,2.41,0,0,1,26.41,13Z"/><path class="cls-5" d="M54,23a4.5,4.5,0,1,0-7.94,2.9A4,4,0,0,1,47,28.47v1h5v-1a4,4,0,0,1,.94-2.57A4.51,4.51,0,0,0,54,23Z"/><path class="cls-6" d="M54,23a4.5,4.5,0,1,0-7.94,2.9A4,4,0,0,1,47,28.47v1h5v-1a4,4,0,0,1,.94-2.57A4.51,4.51,0,0,0,54,23Z"/><path class="cls-7" d="M51,31.5H48a1,1,0,0,1-1-1v-1h5v1A1,1,0,0,1,51,31.5Z"/><path class="cls-7" d="M51,32a1.5,1.5,0,0,1-3,0v-.5h3Z"/><line class="cls-3" x1="49.5" y1="16.5" x2="49.5" y2="15.5"/><line class="cls-3" x1="54.1" y1="18.4" x2="54.8" y2="17.7"/><line class="cls-3" x1="56" y1="23" x2="57" y2="23"/><line class="cls-3" x1="44.9" y1="18.4" x2="44.2" y2="17.7"/><line class="cls-3" x1="43" y1="23" x2="42" y2="23"/><g class="cls-8"><path class="cls-9" d="M43.5,83v18.5H48l.4-12.45a1.6,1.6,0,0,1,3.2,0L52,101.5h4.5V83Z"/><path class="cls-3" d="M43.5,83v18.5H48l.4-12.45a1.6,1.6,0,0,1,3.2,0L52,101.5h4.5V83Z"/><path class="cls-9" d="M60.5,75a10.5,10.5,0,0,0-21,0v8.5a.5.5,0,0,0,.5.5h3.5v5h3.26A3.61,3.61,0,0,0,50,87a3.61,3.61,0,0,0,3.23,2H56.5V84H60a.5.5,0,0,0,.5-.5Z"/><path class="cls-3" d="M60.5,75a10.5,10.5,0,0,0-21,0v8.5a.5.5,0,0,0,.5.5h3.5v5h3.26A3.61,3.61,0,0,0,50,87a3.61,3.61,0,0,0,3.23,2H56.5V84H60a.5.5,0,0,0,.5-.5Z"/><path class="cls-4" d="M40,85.75a1.75,1.75,0,0,0,3.5,0V84H40Z"/><path class="cls-4" d="M56.5,85.75a1.75,1.75,0,0,0,3.5,0V84H56.5Z"/><polygon class="cls-4" points="50 64.5 46.83 68.12 50 77 53.17 68.12 50 64.5"/><ellipse class="cls-9" cx="50" cy="102" rx="13" ry="1.5"/><path class="cls-4" d="M58,101.5a3,3,0,0,0-3-3h-.5a3,3,0,0,0-3,3Z"/><path class="cls-4" d="M48.5,101.5a3,3,0,0,0-3-3H45a3,3,0,0,0-3,3Z"/><path class="cls-10" d="M50,77l5.5-6.5-1-2h2l-.59-2.18a10.62,10.62,0,0,0-1.75-1Z"/><polygon class="cls-10" points="50 64.5 48.29 72.21 50 77 51.71 72.21 50 64.5"/><path class="cls-10" d="M50,77,45.84,65.36a10.62,10.62,0,0,0-1.75,1L43.5,68.5h2l-1,2Z"/><path class="cls-4" d="M54.16,65.36A10.49,10.49,0,0,0,50,64.5l3.17,3.62Z"/><path class="cls-4" d="M50,64.5a10.49,10.49,0,0,0-4.16.86l1,2.76Z"/><line class="cls-3" x1="50" y1="77" x2="50" y2="87"/><path class="cls-4" d="M57,56.5a1.23,1.23,0,0,0-1-1.2v-.8a6,6,0,0,0-12,0v.8a1.23,1.23,0,0,0-1,1.2,1.25,1.25,0,0,0,1.13,1.23,6,6,0,0,0,11.74,0A1.25,1.25,0,0,0,57,56.5Z"/><path class="cls-11" d="M47.75,54.5a.75.75,0,1,0,.75.75.76.76,0,0,0-.75-.75Z"/><path class="cls-11" d="M52.25,54.5a.75.75,0,1,0,.75.75.76.76,0,0,0-.75-.75Z"/><circle class="cls-9" cx="46.75" cy="57.25" r="0.75"/><circle class="cls-9" cx="53.25" cy="57.25" r="0.75"/><path class="cls-3" d="M48.5,59.05a2.72,2.72,0,0,0,3,0"/><path class="cls-5" d="M56.5,53a6.5,6.5,0,0,0-13,0v2A5.15,5.15,0,0,0,47,52C49.8,53.89,53.5,53.5,56.5,53Z"/><path class="cls-3" d="M56.5,53a6.5,6.5,0,0,0-13,0v2A5.15,5.15,0,0,0,47,52C49.8,53.89,53.5,53.5,56.5,53Z"/><path class="cls-3" d="M46,51a3.2,3.2,0,0,0,1,1"/><path class="cls-4" d="M32,87.75a1.75,1.75,0,0,0,3.5,0V77.5H32Z"/><path class="cls-9" d="M20,85v18.5h4.5l.4-12.45a1.6,1.6,0,0,1,3.2,0l.4,12.45H33V85Z"/><path class="cls-3" d="M20,85v18.5h4.5l.4-12.45a1.6,1.6,0,0,1,3.2,0l.4,12.45H33V85Z"/><path class="cls-5" d="M16.5,76a9.5,9.5,0,0,1,19,0v1.5H33V85H20V77.5H16.5Z"/><path class="cls-3" d="M16.5,76a9.5,9.5,0,0,1,19,0v1.5H33V85H20V77.5H16.5Z"/><path class="cls-4" d="M16.5,87.75a1.75,1.75,0,0,0,3.5,0V77.5H16.5Z"/><line class="cls-3" x1="20" y1="77.5" x2="20" y2="74.01"/><line class="cls-3" x1="33" y1="77.5" x2="33" y2="74.5"/><path class="cls-4" d="M35.5,103.5a3,3,0,0,0-3-3h-4v3Z"/><path class="cls-4" d="M27,103.5a3,3,0,0,0-3-3H20v3Z"/><path class="cls-4" d="M26,66.5a9.59,9.59,0,0,0-2.95.47,3.48,3.48,0,0,0,6.84.37A9.37,9.37,0,0,0,26,66.5Z"/><path class="cls-4" d="M26.48,50.06a6,6,0,0,0-6,6v1.2c-1.72,0-1.6,3,.3,3h0A6,6,0,0,0,32.5,58.48v-2.4A6,6,0,0,0,26.48,50.06Z"/><path class="cls-11" d="M25.75,56.5a.75.75,0,1,0,.75.75.75.75,0,0,0-.75-.75Z"/><path class="cls-11" d="M30.25,56.5a.75.75,0,1,0,.75.75.75.75,0,0,0-.75-.75Z"/><path class="cls-9" d="M24.92,59.84a.6.6,0,0,1-1.2,0,.6.6,0,0,1,1.2,0Z"/><path class="cls-3" d="M26.5,61a2.27,2.27,0,0,0,2.66.25,3.79,3.79,0,0,0,.35-.25"/><path class="cls-5" d="M32.64,55.47c1.2-.6.49-3.7-.61-4.21l.79-.62A.91.91,0,0,0,32.19,49H24.81A4.69,4.69,0,0,0,20,53.67v3.61c3.61,0,3.53-2.84,6.62-3.61.08.7,1,1.36,2.41,1.8a1.76,1.76,0,0,1,1.8-1.8Z"/><path class="cls-3" d="M32.64,55.47c1.2-.6.49-3.7-.61-4.21l.79-.62A.91.91,0,0,0,32.19,49H24.81A4.69,4.69,0,0,0,20,53.67v3.61c3.61,0,3.53-2.84,6.62-3.61.08.7,1,1.36,2.41,1.8a1.76,1.76,0,0,1,1.8-1.8Z"/><polygon class="cls-5" points="76.46 96 76 104.5 69 104.5 68.54 96 76.46 96"/><polygon class="cls-3" points="76.5 96 76 104.5 69 104.5 68.5 96 76.5 96"/><line class="cls-3" x1="72.5" y1="96" x2="72.5" y2="104.5"/><polygon class="cls-9" points="67.54 96 67 86 78 86 77.46 96 67.54 96"/><polygon class="cls-3" points="67.54 96 67 86 78 86 77.46 96 67.54 96"/><path class="cls-5" d="M78,69.13a8.4,8.4,0,0,0-5-1.63A8.49,8.49,0,0,0,67,70V86H78Z"/><path class="cls-3" d="M78,69.13a8.4,8.4,0,0,0-5-1.63A8.49,8.49,0,0,0,67,70V86H78Z"/><path class="cls-4" d="M73,74.72l2.51-6.85a8.51,8.51,0,0,0-5.84.32L72,74.72a.51.51,0,0,0,.94,0Z"/><path class="cls-4" d="M66.25,90.5a2,2,0,0,0,1-.3L67,86V70a8.5,8.5,0,0,0-2.5,6V88.75A1.75,1.75,0,0,0,66.25,90.5Z"/><path class="cls-4" d="M78,69.13V88.75a1.75,1.75,0,0,0,3.5,0V76A8.47,8.47,0,0,0,78,69.13Z"/><path class="cls-4" d="M65.5,104.5a3,3,0,0,1,3-3h4v3Z"/><path class="cls-4" d="M69.5,104.5a3,3,0,0,1,3-3h4v3Z"/><path class="cls-4" d="M72.5,51.41a6,6,0,0,1,6,6v.8a1.22,1.22,0,0,1-.13,2.42A6,6,0,0,1,66.5,59.41v-2A6,6,0,0,1,72.5,51.41Z"/><path class="cls-11" d="M73.25,57.5a.75.75,0,1,0,.75.75.76.76,0,0,0-.75-.75Z"/><path class="cls-11" d="M69.25,57.5a.75.75,0,1,0,.75.75.76.76,0,0,0-.75-.75Z"/><circle class="cls-9" cx="75.25" cy="60.25" r="0.75"/><path class="cls-3" d="M73,62a2.69,2.69,0,0,1-3,0"/><path class="cls-4" d="M78.93,52.88c.61,1,1.46,1.53,1.46,6s1.5,4.5,1.5,7.5c0,2.7-2.25,3.37-5,3.48a.49.49,0,0,1-.44-.23.52.52,0,0,1,0-.5c.68-1.28,1.87-4.32,2-10a.9.9,0,0,0-.84-.92c-2.55-.18-7.38-2.69-8.08-3.95a.6.6,0,0,0-.76-.26c-1.54.67-2.2,3.36-2.2,3.36v2.11A29.62,29.62,0,0,0,68,68.78a.42.42,0,0,1-.61.5c-3.69-2.29-4.17-3.21-3-6.87.52-1.58-1-9,2-10C66.39,49.91,78.13,51,78.93,52.88Z"/><path class="cls-10" d="M74.11,53.11c-3.08-1.31-6.65-1.59-7.72-.7A7.21,7.21,0,0,1,66.5,50c.79-1.85,4.84-1.9,9.06-.1s6.33,4,6.83,6-.87,2.33-2,2.5C80.37,57,77.25,54.45,74.11,53.11Z"/><line class="cls-3" x1="43.5" y1="84" x2="43.5" y2="73.33"/><line class="cls-3" x1="56.5" y1="84" x2="56.5" y2="73.33"/></g></g></svg>