<svg id="Duotone" xmlns="http://www.w3.org/2000/svg" viewBox="0 0 100 112"><defs><style>.cls-1{fill:#f0f2ff;}.cls-2,.cls-7{fill:none;}.cls-2,.cls-4,.cls-7,.cls-8{stroke:#4550e5;}.cls-2,.cls-4,.cls-8{stroke-linecap:round;stroke-linejoin:round;}.cls-3,.cls-4{fill:#fff;}.cls-5{fill:#4550e5;}.cls-6,.cls-8{fill:#d6daff;}.cls-7{stroke-miterlimit:10;}</style></defs><title>22- student-reading-male-african-american</title><g id="Icons"><g id="Background"><path class="cls-1" d="M90,56A40,40,0,1,0,13.56,72.5H86.44A39.85,39.85,0,0,0,90,56Z"/><line class="cls-2" x1="11" y1="72.5" x2="89" y2="72.5"/><line class="cls-2" x1="6.5" y1="72.5" x2="9" y2="72.5"/><line class="cls-2" x1="91" y1="72.5" x2="93.5" y2="72.5"/></g><g id="Scene"><path class="cls-3" d="M29,60.72a1.15,1.15,0,0,1-.34.82l-.48.47a1.13,1.13,0,0,1-.81.34h-2.5A1.14,1.14,0,0,1,24.1,62l-.48-.47a1.18,1.18,0,0,1-.33-.82V55.93a1.18,1.18,0,0,1,.33-.82l.48-.47a1.14,1.14,0,0,1,.81-.34h2.5a1.13,1.13,0,0,1,.81.34l.48.47a1.15,1.15,0,0,1,.34.82Z"/><path class="cls-2" d="M26.74,54.3s-1.73,2.3-1.15,4,.57,2.87-.58,4"/><path class="cls-4" d="M58.94,38.2a1.42,1.42,0,0,0-1.15-1.38V35.9a6.9,6.9,0,0,0-13.8,0v.92a1.41,1.41,0,0,0,.14,2.79,6.9,6.9,0,0,0,13.51,0A1.43,1.43,0,0,0,58.94,38.2Z"/><path class="cls-5" d="M48.3,35.9a.87.87,0,1,0,.86.86.86.86,0,0,0-.86-.86Z"/><path class="cls-5" d="M53.48,35.9a.87.87,0,1,0,.86.86.87.87,0,0,0-.86-.86Z"/><circle class="cls-6" cx="47.15" cy="39.06" r="0.86"/><circle class="cls-6" cx="54.63" cy="39.06" r="0.86"/><path class="cls-2" d="M49.16,41.13a3.13,3.13,0,0,0,3.45,0"/><path class="cls-3" d="M58.36,34.18a7.48,7.48,0,1,0-15,0v2.3a6,6,0,0,0,4-3.45C50.66,35.19,54.91,34.75,58.36,34.18Z"/><path class="cls-2" d="M58.36,34.18a7.48,7.48,0,1,0-15,0v2.3a6,6,0,0,0,4-3.45C50.66,35.19,54.91,34.75,58.36,34.18Z"/><path class="cls-2" d="M46.29,31.88A3.65,3.65,0,0,0,47.44,33"/><circle class="cls-7" cx="48.01" cy="36.48" r="2.87"/><circle class="cls-7" cx="53.76" cy="36.48" r="2.87"/><rect class="cls-4" x="18.69" y="62.35" width="59.22" height="2.87" rx="1" ry="1"/><ellipse class="cls-1" cx="48.3" cy="84.78" rx="30.19" ry="1.72"/><rect class="cls-8" x="49.16" y="45.1" width="3.45" height="17.25"/><path class="cls-8" d="M33.22,42.25a1.21,1.21,0,0,0-.16.59V58.51A1.14,1.14,0,0,0,34,59.64l15.15,2.71V45.1Z"/><path class="cls-4" d="M44.56,51.18a1.15,1.15,0,0,1-1.37,1.12l-4.37-.86a1.14,1.14,0,0,1-.93-1.12v-2.1a1.15,1.15,0,0,1,1.38-1.12l4.37.86a1.15,1.15,0,0,1,.92,1.13Z"/><path class="cls-4" d="M34.11,43.91a2,2,0,0,1-.29,4L33,47.86a1.14,1.14,0,0,1-.79-.39,1.16,1.16,0,0,1-.28-.84L32,44.91a1.14,1.14,0,0,1,1.23-1.06Z"/><path class="cls-4" d="M33.22,42.25,49.16,45.1h1.73a7.4,7.4,0,0,0-5-3.47L37,40a1.19,1.19,0,0,0-.84.17l-2.55,1.7A1.27,1.27,0,0,0,33.22,42.25Z"/><path class="cls-8" d="M68.55,42.25a1.11,1.11,0,0,1,.16.59V58.51a1.14,1.14,0,0,1-.95,1.13L52.61,62.35V45.1Z"/><path class="cls-4" d="M67.67,43.91a2,2,0,0,0,.29,4l.86-.07a1.16,1.16,0,0,0,.79-.39,1.11,1.11,0,0,0,.27-.84l-.12-1.72a1.15,1.15,0,0,0-1.23-1.06Z"/><path class="cls-4" d="M68.55,42.25,52.61,45.1H50.89a7.38,7.38,0,0,1,5-3.47L64.81,40a1.19,1.19,0,0,1,.84.17l2.55,1.7A1.23,1.23,0,0,1,68.55,42.25Z"/><path class="cls-8" d="M60.23,58.9H73.6a0,0,0,0,1,0,0v3.45a0,0,0,0,1,0,0H59.23a0,0,0,0,1,0,0V59.9A1,1,0,0,1,60.23,58.9Z"/><path class="cls-4" d="M62,55.45H74.33a1,1,0,0,1,1,1V57.9a1,1,0,0,1-1,1H61a0,0,0,0,1,0,0V56.45A1,1,0,0,1,62,55.45Z"/><rect class="cls-3" x="22.14" y="65.23" width="52.32" height="18.4"/><rect class="cls-2" x="22.14" y="65.23" width="52.32" height="18.4"/><path class="cls-2" d="M29,60.72a1.15,1.15,0,0,1-.34.82l-.48.47a1.13,1.13,0,0,1-.81.34h-2.5A1.14,1.14,0,0,1,24.1,62l-.48-.47a1.18,1.18,0,0,1-.33-.82V55.93a1.18,1.18,0,0,1,.33-.82l.48-.47a1.14,1.14,0,0,1,.81-.34h2.5a1.13,1.13,0,0,1,.81.34l.48.47a1.15,1.15,0,0,1,.34.82Z"/><line class="cls-2" x1="25.01" y1="54.3" x2="24.44" y2="52.58"/><path class="cls-4" d="M66.84,80.18H80.21a0,0,0,0,1,0,0v2.45a1,1,0,0,1-1,1H66.84a1,1,0,0,1-1-1V81.18A1,1,0,0,1,66.84,80.18Z"/><path class="cls-8" d="M27.31,80.18H40.69a1,1,0,0,1,1,1v2.45a0,0,0,0,1,0,0H28.31a1,1,0,0,1-1-1V80.18A0,0,0,0,1,27.31,80.18Z"/><rect class="cls-4" x="24.44" y="76.73" width="14.37" height="3.45"/><path class="cls-4" d="M24.44,73.28h12.8a1,1,0,0,1,1,1v2.45a0,0,0,0,1,0,0H24.44a0,0,0,0,1,0,0V73.28A0,0,0,0,1,24.44,73.28Z"/><path class="cls-8" d="M68.71,76.73H82.09a1,1,0,0,1,1,1v1.45a1,1,0,0,1-1,1H68.71a0,0,0,0,1,0,0V76.73A0,0,0,0,1,68.71,76.73Z"/><path class="cls-4" d="M68,73.28H81.36a0,0,0,0,1,0,0v3.45a0,0,0,0,1,0,0H67a0,0,0,0,1,0,0V74.28A1,1,0,0,1,68,73.28Z"/><path class="cls-8" d="M72,69.83H84.39a1,1,0,0,1,1,1v1.45a1,1,0,0,1-1,1H71a0,0,0,0,1,0,0V70.83A1,1,0,0,1,72,69.83Z"/><path class="cls-8" d="M67.58,75.68a1.14,1.14,0,0,1-.45,1.56L56.55,83.07a1.15,1.15,0,0,1-.87.1,1.22,1.22,0,0,1-.69-.55l-.55-1a1.14,1.14,0,0,1,.45-1.56l10.58-5.83a1.15,1.15,0,0,1,1.56.45Z"/><rect class="cls-8" x="15.53" y="74.71" width="14.37" height="3.45" rx="1" ry="1" transform="translate(99.15 53.72) rotate(90)"/></g></g></svg>