<svg id="Duotone" xmlns="http://www.w3.org/2000/svg" xmlns:xlink="http://www.w3.org/1999/xlink" viewBox="0 0 100 112"><defs><style>.cls-1,.cls-3,.cls-7{fill:none;}.cls-2{fill:#f0f2ff;}.cls-3,.cls-4,.cls-5,.cls-7,.cls-9{stroke:#4550e5;stroke-linejoin:round;}.cls-3,.cls-4,.cls-9{stroke-linecap:round;}.cls-4,.cls-6{fill:#fff;}.cls-10,.cls-5,.cls-9{fill:#d6daff;}.cls-8{clip-path:url(#clip-path);}</style><clipPath id="clip-path"><circle class="cls-1" cx="50" cy="56" r="40"/></clipPath></defs><title>27- business-balance-time-income-1</title><g id="Icons"><g id="New_Symbol_58-2" data-name="New Symbol 58"><path class="cls-2" d="M90,56A40,40,0,1,0,13.56,72.5H86.44A39.85,39.85,0,0,0,90,56Z"/><line class="cls-3" x1="11" y1="72.5" x2="89" y2="72.5"/><line class="cls-3" x1="6.5" y1="72.5" x2="9" y2="72.5"/><line class="cls-3" x1="91" y1="72.5" x2="93.5" y2="72.5"/></g><path class="cls-4" d="M75.92,62.9a2.5,2.5,0,0,1,1.87,3L77,69.21l-4.86-1.14.77-3.31A2.49,2.49,0,0,1,75.92,62.9Z"/><path class="cls-4" d="M24.08,62.89a2.51,2.51,0,0,0-1.87,3L23,69.2l4.86-1.14-.77-3.3A2.5,2.5,0,0,0,24.08,62.89Z"/><path class="cls-5" d="M15,55.06v3.19a1.47,1.47,0,0,0,1.23,1.45,37,37,0,0,0,12.25,0,1.47,1.47,0,0,0,1.23-1.45V55.06"/><path class="cls-5" d="M15,52.12v3.19a1.47,1.47,0,0,0,1.23,1.45,37.3,37.3,0,0,0,12.25,0,1.47,1.47,0,0,0,1.23-1.45V52.12"/><path class="cls-5" d="M15,49.18v3.19a1.47,1.47,0,0,0,1.23,1.45,37.3,37.3,0,0,0,12.25,0,1.47,1.47,0,0,0,1.23-1.45V49.18"/><path class="cls-5" d="M29.73,47a1.47,1.47,0,0,0-.52-1.12A1.44,1.44,0,0,0,28,45.52a37.4,37.4,0,0,1-11.31,0A1.46,1.46,0,0,0,15,47v2.46a1.46,1.46,0,0,0,1.23,1.44,36.33,36.33,0,0,0,12.25,0,1.46,1.46,0,0,0,1.23-1.44V47Z"/><path class="cls-6" d="M23.84,48.81c0,.61-.65,1.1-1.47,1.1s-1.47-.49-1.47-1.1.66-1.1,1.47-1.1S23.84,48.2,23.84,48.81Z"/><path class="cls-5" d="M35.53,52.43a1.45,1.45,0,0,0-.74-1,1.47,1.47,0,0,0-1.23-.08A37.09,37.09,0,0,1,28.13,53a37.8,37.8,0,0,1-5.62.79,1.43,1.43,0,0,0-1.08.58,1.47,1.47,0,0,0-.27,1.2l.25,1.16.69,3.12A1.47,1.47,0,0,0,23.6,61a37,37,0,0,0,12-2.62,1.49,1.49,0,0,0,.89-1.68l-.69-3.11Z"/><path class="cls-6" d="M30.35,56.28a1.47,1.47,0,1,1-1.75-1.12A1.47,1.47,0,0,1,30.35,56.28Z"/><path class="cls-6" d="M84.15,61.49a4,4,0,0,1-3.47,2H68.32a4,4,0,0,1-3.47-2h0A1,1,0,0,1,65.71,60H83.29a1,1,0,0,1,.86,1.49Z"/><circle class="cls-5" cx="74.5" cy="50" r="10"/><circle class="cls-6" cx="74.5" cy="50" r="8"/><circle class="cls-7" cx="74.5" cy="50" r="8"/><polyline class="cls-3" points="74.5 44.5 74.5 50 77.5 50"/><line class="cls-3" x1="78.74" y1="45.76" x2="78.04" y2="46.46"/><line class="cls-3" x1="80.5" y1="50" x2="79.5" y2="50"/><line class="cls-3" x1="78.74" y1="54.24" x2="78.04" y2="53.54"/><line class="cls-3" x1="74.5" y1="56" x2="74.5" y2="55"/><line class="cls-3" x1="70.26" y1="54.24" x2="70.96" y2="53.54"/><line class="cls-3" x1="68.5" y1="50" x2="69.5" y2="50"/><line class="cls-3" x1="70.26" y1="45.76" x2="70.96" y2="46.46"/><path class="cls-3" d="M84.15,61.49a4,4,0,0,1-3.47,2H68.32a4,4,0,0,1-3.47-2h0A1,1,0,0,1,65.71,60H83.29a1,1,0,0,1,.86,1.49Z"/><path class="cls-6" d="M33.65,61.48a4,4,0,0,1-3.47,2H17.82a4,4,0,0,1-3.47-2h0A1,1,0,0,1,15.21,60H32.79a1,1,0,0,1,.86,1.48Z"/><path class="cls-3" d="M33.65,61.48a4,4,0,0,1-3.47,2H17.82a4,4,0,0,1-3.47-2h0A1,1,0,0,1,15.21,60H32.79a1,1,0,0,1,.86,1.48Z"/><g class="cls-8"><rect class="cls-9" x="40.5" y="92" width="19" height="8.5"/><line class="cls-3" x1="50" y1="97.5" x2="50" y2="100.5"/><path class="cls-10" d="M71.31,68.83l-1.54,5a2.24,2.24,0,0,1-1.59,1.56,2.17,2.17,0,0,1-2.68-2.11h0A15.77,15.77,0,0,0,50.75,58c-.25,0-.5,0-.75,0s-.5,0-.75,0A15.77,15.77,0,0,0,34.53,73.33h0a2.17,2.17,0,0,1-2.68,2.11,2.24,2.24,0,0,1-1.59-1.56l-1.54-5a1,1,0,0,0-1.18-.68l-3.9.9a1,1,0,0,0-.74,1.27l1.58,5.18a8.36,8.36,0,0,0,6.79,5.93,8.17,8.17,0,0,0,9.25-7.92h0V97h5a4,4,0,0,0,3.83-2.85L50,92l.65,2.15A4,4,0,0,0,54.48,97h5V73.5h0a8.17,8.17,0,0,0,9.25,7.92,8.36,8.36,0,0,0,6.79-5.93l1.58-5.18a1,1,0,0,0-.74-1.27l-3.9-.9A1,1,0,0,0,71.31,68.83Z"/><path class="cls-3" d="M71.31,68.83l-1.54,5a2.24,2.24,0,0,1-1.59,1.56,2.17,2.17,0,0,1-2.68-2.11h0A15.77,15.77,0,0,0,50.75,58c-.25,0-.5,0-.75,0s-.5,0-.75,0A15.77,15.77,0,0,0,34.53,73.33h0a2.17,2.17,0,0,1-2.68,2.11,2.24,2.24,0,0,1-1.59-1.56l-1.54-5a1,1,0,0,0-1.18-.68l-3.9.9a1,1,0,0,0-.74,1.27l1.58,5.18a8.36,8.36,0,0,0,6.79,5.93,8.17,8.17,0,0,0,9.25-7.92h0V97h5a4,4,0,0,0,3.83-2.85L50,92l.65,2.15A4,4,0,0,0,54.48,97h5V73.5h0a8.17,8.17,0,0,0,9.25,7.92,8.36,8.36,0,0,0,6.79-5.93l1.58-5.18a1,1,0,0,0-.74-1.27l-3.9-.9A1,1,0,0,0,71.31,68.83Z"/><path class="cls-9" d="M59.5,63.5c0-3-3-5.63-6.33-6H46.83c-3.38.37-6.33,3-6.33,6l3,1-2.5,3L50,81l9-13.5-2.5-3Z"/><path class="cls-4" d="M53.5,60.5V57h-7v3.5c-.55,2.38-1.09,4.23-.32,6.53L50,81l3.82-14C54.59,64.73,54.05,62.88,53.5,60.5Z"/><polyline class="cls-3" points="53.98 66.49 50 64 46.02 66.49"/><polygon class="cls-9" points="51.81 65.14 51 67 49 67 48.19 65.14 50 64 51.81 65.14"/><path class="cls-9" d="M52,73.57A24.67,24.67,0,0,0,51,67H49a24.67,24.67,0,0,0-1,6.57L50,81Z"/><polygon class="cls-4" points="53.5 60.51 50 64 46.5 60.51 46.5 55.01 53.5 55.01 53.5 60.51"/><polygon class="cls-3" points="53.5 60.51 50 64 46.5 60.51 46.5 55.01 53.5 55.01 53.5 60.51"/><line class="cls-3" x1="50" y1="92" x2="50" y2="81"/><line class="cls-3" x1="53" y1="89" x2="57" y2="89"/><line class="cls-3" x1="43" y1="89" x2="47" y2="89"/><path class="cls-4" d="M60,44.5V42a10,10,0,0,0-20,0v2.5a2,2,0,0,0,0,4h.12a10,10,0,0,0,19.76,0H60a2,2,0,1,0,0-4Z"/><path class="cls-3" d="M47,51.5a4.38,4.38,0,0,0,6,0"/><path class="cls-3" d="M55.49,45.5a1.63,1.63,0,0,0-3,0"/><path class="cls-3" d="M47.5,45.5a1.63,1.63,0,0,0-3,0"/><circle class="cls-10" cx="44.24" cy="48.75" r="1.25"/><circle class="cls-10" cx="55.74" cy="48.75" r="1.25"/><path class="cls-6" d="M57,31c0-.87-1.54-2-3.5-2H47c-5.48,0-9.5,4.52-9.5,10a10.35,10.35,0,0,0,1.44,5.81A2,2,0,0,1,40,44.5a2,2,0,0,1,1.5.69,24.12,24.12,0,0,0,.09-5.53,11.64,11.64,0,0,0,3.6.51c5,0,10.94-2.34,10.94-5.05a15.56,15.56,0,0,0,2.68,9.78A2,2,0,0,1,61.3,45a.35.35,0,0,1,.08,0C62.18,45.85,64.92,32.76,57,31Z"/><path class="cls-7" d="M57,31c0-.87-1.54-2-3.5-2H47c-5.48,0-9.5,4.52-9.5,10a10.35,10.35,0,0,0,1.44,5.81A2,2,0,0,1,40,44.5a2,2,0,0,1,1.5.69,24.12,24.12,0,0,0,.09-5.53,11.64,11.64,0,0,0,3.6.51c5,0,10.94-2.34,10.94-5.05a15.56,15.56,0,0,0,2.68,9.78A2,2,0,0,1,61.3,45a.35.35,0,0,1,.08,0C62.18,45.85,64.92,32.76,57,31Z"/></g></g></svg>