<?xml version="1.0" encoding="utf-8"?>
<!-- Generator: Adobe Illustrator 22.0.0, SVG Export Plug-In . SVG Version: 6.00 Build 0)  -->
<svg version="1.1" id="Layer_1" xmlns="http://www.w3.org/2000/svg" xmlns:xlink="http://www.w3.org/1999/xlink" x="0px" y="0px"
	 viewBox="0 0 100 112" style="enable-background:new 0 0 100 112;" xml:space="preserve">
<style type="text/css">
	.st0{clip-path:url(#SVGID_2_);fill:#F0F2FF;}
	.st1{clip-path:url(#SVGID_2_);fill:none;stroke:#4550E5;stroke-linecap:round;stroke-linejoin:round;stroke-miterlimit:10;}
	.st2{clip-path:url(#SVGID_2_);fill:#FFFFFF;}
	.st3{clip-path:url(#SVGID_2_);fill:#D6DAFF;}
	.st4{clip-path:url(#SVGID_2_);fill:none;stroke:#2D86FA;stroke-linecap:round;stroke-linejoin:round;stroke-miterlimit:10;}
	.st5{clip-path:url(#SVGID_4_);fill:#D6DAFF;}
	.st6{clip-path:url(#SVGID_4_);fill:none;stroke:#4550E5;stroke-linecap:round;stroke-linejoin:round;stroke-miterlimit:10;}
</style>
<g>
	<defs>
		<rect id="SVGID_1_" width="100" height="112"/>
	</defs>
	<clipPath id="SVGID_2_">
		<use xlink:href="#SVGID_1_"  style="overflow:visible;"/>
	</clipPath>
	<path class="st0" d="M90,56.5c0-22.1-17.9-40-40-40c-22.1,0-40,17.9-40,40c0,5.9,1.3,11.5,3.6,16.5h72.9C88.7,68,90,62.4,90,56.5"
		/>
	<line class="st1" x1="11" y1="73" x2="89" y2="73"/>
	<line class="st1" x1="6.5" y1="73" x2="9" y2="73"/>
	<line class="st1" x1="91" y1="73" x2="93.5" y2="73"/>
	<path class="st0" d="M18.5,76c0,0.8,6.9,1.5,15.5,1.5s15.5-0.7,15.5-1.5c0-0.8-6.9-1.5-15.5-1.5S18.5,75.2,18.5,76"/>
	<path class="st2" d="M71.5,71c0,4.4,3.6,8,8,8c4.4,0,8-3.6,8-8v-4c0-0.6-0.4-1-1-1h-4c-0.6,0-1,0.4-1,1v4c0,1.1-0.9,2-2,2
		c-1.1,0-2-0.9-2-2c0-8.6-6.9-15.5-15.5-15.5S46.5,62.4,46.5,71v18h6v-0.5h19V71z"/>
	<path class="st1" d="M71.5,71c0,4.4,3.6,8,8,8c4.4,0,8-3.6,8-8v-4c0-0.6-0.4-1-1-1h-4c-0.6,0-1,0.4-1,1v4c0,1.1-0.9,2-2,2
		c-1.1,0-2-0.9-2-2c0-8.6-6.9-15.5-15.5-15.5S46.5,62.4,46.5,71v18h6v-0.5h19V71z"/>
	<line class="st1" x1="52.5" y1="88.5" x2="52.5" y2="69.5"/>
	<line class="st1" x1="71.5" y1="71" x2="71.5" y2="69.5"/>
	<path class="st2" d="M69.5,70.5c-1.1-0.6-2.5-0.2-3.2,0.9l-0.8,1.1c0-2.6,0.5-5.5,2-6.5C69.2,66.7,69.5,70,69.5,70.5"/>
	<path class="st1" d="M69.5,70.5c-1.1-0.6-2.5-0.2-3.2,0.9l-0.8,1.1c0-2.6,0.5-5.5,2-6.5C69.2,66.7,69.5,70,69.5,70.5z"/>
	<path class="st3" d="M65.5,55.9v0.6c-1,1-2.2,1.5-3.5,1.5c-1.3,0-2.5-0.5-3.5-1.5v-0.6c-1.2,0.3-2.4,0.7-3.5,1.3c1.8,2,7,6.3,7,6.3
		s5.2-4.3,7-6.3C67.9,56.6,66.7,56.2,65.5,55.9"/>
	<path class="st1" d="M65.5,55.9v0.6c-1,1-2.2,1.5-3.5,1.5c-1.3,0-2.5-0.5-3.5-1.5v-0.6c-1.2,0.3-2.4,0.7-3.5,1.3c1.8,2,7,6.3,7,6.3
		s5.2-4.3,7-6.3C67.9,56.6,66.7,56.2,65.5,55.9z"/>
	<path class="st2" d="M58.5,52.5v4c1,1,2.2,1.5,3.5,1.5c1.3,0,2.5-0.5,3.5-1.5v-4H58.5z"/>
	<path class="st1" d="M58.5,52.5v4c1,1,2.2,1.5,3.5,1.5c1.3,0,2.5-0.5,3.5-1.5v-4H58.5z"/>
	<path class="st2" d="M79.6,59.9c0.2,0.1,0.5,0,0.6-0.1c0.2-0.1,0.3-0.3,0.3-0.6v-4.8c0-0.6,0.4-1,1-1c0.6,0,1,0.4,1,1v-1
		c0-0.6,0.4-1,1-1c0.6,0,1,0.4,1,1v4.2c0,0.2,0.1,0.3,0.3,0.3c0.1,0,0.2-0.1,0.3-0.2l1.8-3.8c0.2-0.5,0.8-0.7,1.3-0.5
		c0.5,0.2,0.7,0.8,0.5,1.3l-0.3,0.7c0.2-0.5,0.8-0.7,1.3-0.5c0.5,0.2,0.7,0.8,0.5,1.3L88.5,60v0.7c0,1.6-0.5,3.1-1.5,4.3V66h-5v-1
		c-0.9-0.5-1.5-1.5-1.5-2.6L77,61.1C77.4,60.1,78.5,59.6,79.6,59.9"/>
	<path class="st1" d="M79.6,59.9c0.2,0.1,0.5,0,0.6-0.1c0.2-0.1,0.3-0.3,0.3-0.6v-4.8c0-0.6,0.4-1,1-1c0.6,0,1,0.4,1,1v-1
		c0-0.6,0.4-1,1-1c0.6,0,1,0.4,1,1v4.2c0,0.2,0.1,0.3,0.3,0.3c0.1,0,0.2-0.1,0.3-0.2l1.8-3.8c0.2-0.5,0.8-0.7,1.3-0.5
		c0.5,0.2,0.7,0.8,0.5,1.3l-0.3,0.7c0.2-0.5,0.8-0.7,1.3-0.5c0.5,0.2,0.7,0.8,0.5,1.3L88.5,60v0.7c0,1.6-0.5,3.1-1.5,4.3V66h-5v-1
		c-0.9-0.5-1.5-1.5-1.5-2.6L77,61.1C77.4,60.1,78.5,59.6,79.6,59.9z"/>
	<line class="st1" x1="86.7" y1="59.2" x2="88.4" y2="55.5"/>
	<line class="st1" x1="82.5" y1="54.5" x2="82.5" y2="58"/>
	<path class="st2" d="M75,42.5C73.5,39,75.5,36,73,36c0,2.1-0.7,2.7-1,3.9v-0.4c0-5.5-4.5-10-10-10s-10,4.5-10,10v0.4
		c-0.3-1.2-1-1.8-1-3.9c-2.5,0-0.5,3-2,6.5c-1,2.3,1.8,3.5,3.1,3.5c0.7,4.8,4.9,8.5,9.9,8.5s9.2-3.7,9.9-8.5
		C73.2,46,76,44.8,75,42.5"/>
	<path class="st1" d="M75,42.5C73.5,39,75.5,36,73,36c0,2.1-0.7,2.7-1,3.9v-0.4c0-5.5-4.5-10-10-10s-10,4.5-10,10v0.4
		c-0.3-1.2-1-1.8-1-3.9c-2.5,0-0.5,3-2,6.5c-1,2.3,1.8,3.5,3.1,3.5c0.7,4.8,4.9,8.5,9.9,8.5s9.2-3.7,9.9-8.5
		C73.2,46,76,44.8,75,42.5z"/>
	<polyline class="st1" points="64.5,40.5 68,39.5 68.5,38.5 	"/>
	<polyline class="st1" points="59.5,40.5 56,39.5 55.5,38.5 	"/>
	<path class="st3" d="M66.5,46.2c0,0.7,0.6,1.2,1.2,1.2c0.7,0,1.2-0.6,1.2-1.2c0-0.7-0.6-1.2-1.2-1.2C67.1,45,66.5,45.6,66.5,46.2"
		/>
	<path class="st3" d="M57.5,46.2c0,0.7-0.6,1.2-1.2,1.2c-0.7,0-1.2-0.6-1.2-1.2c0-0.7,0.6-1.2,1.2-1.2C56.9,45,57.5,45.6,57.5,46.2"
		/>
	<path class="st1" d="M65,48.8c-1.8,1.6-4.2,1.6-6,0"/>
	<path class="st1" d="M56.5,43c0.3-0.6,0.9-1,1.5-1c0.7,0,1.2,0.4,1.5,1"/>
	<path class="st1" d="M64.5,43c0.3-0.6,0.9-1,1.5-1s1.2,0.4,1.5,1"/>
	<path class="st2" d="M52.5,92c0,1.7-1.3,3-3,3c-1.7,0-3-1.3-3-3v-3h6V92z"/>
	<path class="st1" d="M52.5,92c0,1.7-1.3,3-3,3c-1.7,0-3-1.3-3-3v-3h6V92z"/>
	<line class="st4" x1="42" y1="24" x2="45" y2="24"/>
	<line class="st4" x1="43.5" y1="22.5" x2="43.5" y2="25.5"/>
	<line class="st4" x1="37" y1="35.5" x2="40" y2="35.5"/>
	<line class="st4" x1="38.5" y1="34" x2="38.5" y2="37"/>
	<line class="st4" x1="24.5" y1="31.5" x2="27.5" y2="31.5"/>
	<line class="st4" x1="26" y1="30" x2="26" y2="33"/>
	<path class="st2" d="M73.5,36.1c0-5.7-4.6-10.1-10.3-10.1h-2.4c-5.7,0-10.3,4.3-10.3,10.1c0.1,0,0.3-0.1,0.5-0.1c0,3,1.5,3,1,6
		c0,0,1.5,0.5,1.5-1.5v-4c0,0,3,1,8.5,1s8.5-1,8.5-1v4c0,2,1.5,1.5,1.5,1.5c-0.5-3,1-3,1-6C73.2,36,73.4,36,73.5,36.1"/>
	<path class="st1" d="M73.5,36.1c0-5.7-4.6-10.1-10.3-10.1h-2.4c-5.7,0-10.3,4.3-10.3,10.1c0.1,0,0.3-0.1,0.5-0.1c0,3,1.5,3,1,6
		c0,0,1.5,0.5,1.5-1.5v-4c0,0,3,1,8.5,1s8.5-1,8.5-1v4c0,2,1.5,1.5,1.5,1.5c-0.5-3,1-3,1-6C73.2,36,73.4,36,73.5,36.1z"/>
	<path class="st2" d="M22,50c0,0-2.5,6.9-2.5,10.5h17c0.6,0,1-0.4,1-1V57h-9c-1,0-4-2-1.7-7H22z"/>
	<path class="st1" d="M22,50c0,0-2.5,6.9-2.5,10.5h17c0.6,0,1-0.4,1-1V57h-9c-1,0-4-2-1.7-7H22z"/>
	<path class="st2" d="M21.8,60.5h14.7c0.6,0,1-0.4,1-1v-3c0-0.3-0.2-0.5-0.5-0.5h-5.7C27.6,56,24.1,57.5,21.8,60.5"/>
	<path class="st1" d="M21.8,60.5h14.7c0.6,0,1-0.4,1-1v-3c0-0.3-0.2-0.5-0.5-0.5h-5.7C27.6,56,24.1,57.5,21.8,60.5z"/>
	<path class="st2" d="M37.2,58.5c10.3,0,12.3-3.5,12.3-3.5H25C25,55,27,58.5,37.2,58.5"/>
	<path class="st1" d="M37.2,58.5c10.3,0,12.3-3.5,12.3-3.5H25C25,55,27,58.5,37.2,58.5z"/>
	<path class="st2" d="M38,65h1.5c0.6,0,1-0.4,1-1c0-0.6-0.4-1-1-1H38V65z"/>
	<path class="st1" d="M38,65h1.5c0.6,0,1-0.4,1-1c0-0.6-0.4-1-1-1H38V65z"/>
	<path class="st3" d="M31,46.5c0,0.8-0.7,1.5-1.5,1.5H20c-0.8,0-1.5-0.7-1.5-1.5c0-0.8,0.7-1.5,1.5-1.5h9.5C30.3,45,31,45.7,31,46.5
		"/>
	<path class="st1" d="M31,46.5c0,0.8-0.7,1.5-1.5,1.5H20c-0.8,0-1.5-0.7-1.5-1.5c0-0.8,0.7-1.5,1.5-1.5h9.5C30.3,45,31,45.7,31,46.5
		z"/>
	<path class="st2" d="M26.7,50h-4.4c-0.5,0-0.9-0.3-1-0.8L21,48h7l-0.3,1.2C27.6,49.7,27.2,50,26.7,50"/>
	<path class="st1" d="M26.7,50h-4.4c-0.5,0-0.9-0.3-1-0.8L21,48h7l-0.3,1.2C27.6,49.7,27.2,50,26.7,50z"/>
	<path class="st2" d="M36.6,62.7c-0.1,0.2-0.3,0.3-0.5,0.3H19.8c-0.7,0-1.2-0.6-1.2-1.2c0-0.7,0.6-1.2,1.2-1.2H36
		c0.7,0,1.2,0.7,0.9,1.4L36.6,62.7z"/>
	<path class="st1" d="M36.6,62.7c-0.1,0.2-0.3,0.3-0.5,0.3H19.8c-0.7,0-1.2-0.6-1.2-1.2c0-0.7,0.6-1.2,1.2-1.2H36
		c0.7,0,1.2,0.7,0.9,1.4L36.6,62.7z"/>
	<path class="st2" d="M22,64c0,0.8,0.7,1.5,1.5,1.5h14c0.3,0,0.5-0.2,0.5-0.5v-2c0-0.3-0.2-0.5-0.5-0.5h-14C22.7,62.5,22,63.2,22,64
		"/>
	<path class="st1" d="M22,64c0,0.8,0.7,1.5,1.5,1.5h14c0.3,0,0.5-0.2,0.5-0.5v-2c0-0.3-0.2-0.5-0.5-0.5h-14C22.7,62.5,22,63.2,22,64
		z"/>
	<line class="st1" x1="42" y1="64" x2="40.5" y2="64"/>
	<path class="st3" d="M37.2,51c-5.2,0-13,1.1-14.5,3.2c-0.2,0.3,0,0.8,0.4,0.8h28.1c0.4,0,0.7-0.4,0.4-0.8
		C50.2,52.1,42.4,51,37.2,51"/>
	<path class="st1" d="M37.2,51c-5.2,0-13,1.1-14.5,3.2c-0.2,0.3,0,0.8,0.4,0.8h28.1c0.4,0,0.7-0.4,0.4-0.8
		C50.2,52.1,42.4,51,37.2,51z"/>
	<path class="st3" d="M35.5,65.5h2c0.3,0,0.5-0.2,0.5-0.5v-2c0-0.3-0.2-0.5-0.5-0.5h-2V65.5z"/>
	<path class="st1" d="M35.5,65.5h2c0.3,0,0.5-0.2,0.5-0.5v-2c0-0.3-0.2-0.5-0.5-0.5h-2V65.5z"/>
</g>
<g>
	<defs>
		<path id="SVGID_3_" d="M10,56.5c0,22.1,17.9,40,40,40s40-17.9,40-40c0-22.1-17.9-40-40-40S10,34.4,10,56.5"/>
	</defs>
	<clipPath id="SVGID_4_">
		<use xlink:href="#SVGID_3_"  style="overflow:visible;"/>
	</clipPath>
	<rect x="52.5" y="88.5" class="st5" width="19" height="8.5"/>
	<line class="st6" x1="62" y1="91.5" x2="62" y2="97"/>
	<rect x="52.5" y="88.5" class="st6" width="19" height="8.5"/>
</g>
</svg>
