<svg id="Duotone" xmlns="http://www.w3.org/2000/svg" viewBox="0 0 100 112"><defs><style>.cls-1{fill:#f0f2ff;}.cls-2{fill:none;}.cls-2,.cls-4,.cls-5{stroke:#4550e5;stroke-linecap:round;stroke-linejoin:round;}.cls-3,.cls-5{fill:#fff;}.cls-4,.cls-7{fill:#d6daff;}.cls-6{fill:#4550e5;}</style></defs><title>93- hacker-hacking-server</title><g id="Icons"><g id="Background"><path class="cls-1" d="M90.34,56A40,40,0,1,0,13.9,72.51H86.77A39.7,39.7,0,0,0,90.34,56Z"/><line class="cls-2" x1="11.34" y1="72.51" x2="89.34" y2="72.51"/><line class="cls-2" x1="6.84" y1="72.51" x2="9.34" y2="72.51"/><line class="cls-2" x1="91.34" y1="72.51" x2="93.84" y2="72.51"/></g><g id="Scene"><ellipse class="cls-1" cx="28.42" cy="91.32" rx="11.5" ry="1.72"/><path class="cls-3" d="M34.17,72.34V86.77a2.69,2.69,0,0,0-.57,0H28.87l-.38-10.93a1.8,1.8,0,0,0-3.59,0l-.39,11a3.11,3.11,0,0,0-.69-.07h-4.6V72.34Z"/><path class="cls-2" d="M34.17,72.34V86.77a2.69,2.69,0,0,0-.57,0H28.87l-.38-10.93a1.8,1.8,0,0,0-3.59,0l-.39,11a3.11,3.11,0,0,0-.69-.07h-4.6V72.34Z"/><path class="cls-4" d="M33,45.11c-.19.93-.43,1.86-.71,2.78a.45.45,0,0,0,0,.08c-.13.39-.25.78-.39,1.17a11.48,11.48,0,0,0-5.71-1.52,11.71,11.71,0,0,0-3.47.53,21.22,21.22,0,0,1-.55-4.77V38.66a5.92,5.92,0,0,1,5.18-6,5.77,5.77,0,0,1,6.32,5.73c0,.11,0,.24,0,.35A30.87,30.87,0,0,1,33.15,44C33.09,44.39,33,44.74,33,45.11Z"/><path class="cls-3" d="M26.7,29.22a6.9,6.9,0,0,0-6.9,6.9V37a1.41,1.41,0,0,0-1.15,1.38,1.43,1.43,0,0,0,1.29,1.41A6.9,6.9,0,0,0,33.6,38.42v-2.3A6.9,6.9,0,0,0,26.7,29.22Z"/><path class="cls-5" d="M11.17,63.14a8.05,8.05,0,0,0,8,8v-23a8.06,8.06,0,0,0-8,8.05Z"/><path class="cls-2" d="M26.7,29.22a6.9,6.9,0,0,0-6.9,6.9V37a1.41,1.41,0,0,0-1.15,1.38,1.43,1.43,0,0,0,1.29,1.41A6.9,6.9,0,0,0,33.6,38.42v-2.3A6.9,6.9,0,0,0,26.7,29.22Z"/><path class="cls-6" d="M25.83,36.12a.86.86,0,1,0,.87.86.86.86,0,0,0-.87-.86Z"/><path class="cls-6" d="M30.43,36.12a.86.86,0,1,0,.87.86.86.86,0,0,0-.87-.86Z"/><circle class="cls-7" cx="23.53" cy="39.28" r="0.86"/><path class="cls-2" d="M26.12,41.34a3.1,3.1,0,0,0,3.45,0"/><path class="cls-4" d="M37.05,90.17H30.11A1.15,1.15,0,0,1,29,89.06l-.09-2.34H33.6a2.69,2.69,0,0,1,.57,0A3.44,3.44,0,0,1,37.05,90.17Z"/><path class="cls-4" d="M27.27,90.17a3.44,3.44,0,0,0-3.45-3.45h-4.6V89a1.16,1.16,0,0,0,1.15,1.15Z"/><path class="cls-5" d="M14.62,71.77a2.3,2.3,0,1,0,4.6,0V70h-4.6Z"/><path class="cls-5" d="M22.66,48.15c.72,3.17,1.81,4.93,4,9.24,1.71-.5,3.72-4,5.14-8.23h0v0a11.5,11.5,0,0,0-5.71-1.51A11.28,11.28,0,0,0,22.66,48.15Z"/><path class="cls-5" d="M31.83,49.15v0a11.5,11.5,0,0,0-5.71-1.51,11.28,11.28,0,0,0-3.46.53,18.67,18.67,0,0,0,1,3.09,5.28,5.28,0,0,0,8.05-1.64c.05-.15.11-.29.16-.44Z"/><path class="cls-5" d="M64.34,30h17a2,2,0,0,1,2,2V72.5a0,0,0,0,1,0,0h-21a0,0,0,0,1,0,0V32A2,2,0,0,1,64.34,30Z"/><rect class="cls-5" x="64.84" y="67.5" width="16" height="5"/><path class="cls-4" d="M65.84,32.5h14a1,1,0,0,1,1,1v4a0,0,0,0,1,0,0h-16a0,0,0,0,1,0,0v-4A1,1,0,0,1,65.84,32.5Z"/><circle class="cls-5" cx="73.84" cy="35" r="1"/><circle class="cls-5" cx="77.84" cy="35" r="1"/><line class="cls-2" x1="66.84" y1="35" x2="70.34" y2="35"/><rect class="cls-4" x="64.84" y="37.5" width="16" height="5"/><circle class="cls-5" cx="73.84" cy="40" r="1"/><circle class="cls-5" cx="77.84" cy="40" r="1"/><line class="cls-2" x1="66.84" y1="40" x2="70.34" y2="40"/><rect class="cls-4" x="64.84" y="42.5" width="16" height="5"/><circle class="cls-5" cx="73.84" cy="45" r="1"/><circle class="cls-5" cx="77.84" cy="45" r="1"/><line class="cls-2" x1="66.84" y1="45" x2="70.34" y2="45"/><rect class="cls-4" x="64.84" y="47.5" width="16" height="5"/><circle class="cls-5" cx="73.84" cy="50" r="1"/><circle class="cls-5" cx="77.84" cy="50" r="1"/><line class="cls-2" x1="66.84" y1="50" x2="70.34" y2="50"/><rect class="cls-4" x="64.84" y="52.5" width="16" height="5"/><circle class="cls-5" cx="73.84" cy="55" r="1"/><circle class="cls-5" cx="77.84" cy="55" r="1"/><line class="cls-2" x1="66.84" y1="55" x2="70.34" y2="55"/><rect class="cls-4" x="64.84" y="57.5" width="16" height="5"/><circle class="cls-5" cx="73.84" cy="60" r="1"/><circle class="cls-5" cx="77.84" cy="60" r="1"/><line class="cls-2" x1="66.84" y1="60" x2="70.34" y2="60"/><rect class="cls-4" x="64.84" y="62.5" width="16" height="5"/><circle class="cls-2" cx="73.84" cy="65" r="1"/><circle class="cls-5" cx="77.84" cy="65" r="1"/><line class="cls-2" x1="66.84" y1="65" x2="70.34" y2="65"/><path class="cls-2" d="M53.15,58a3.45,3.45,0,0,1,3.45,3.45V78.09a3.44,3.44,0,0,0,3.45,3.45h2.87a2.88,2.88,0,0,0,2.88-2.87,2.87,2.87,0,0,1,2.87-2.88H71c1.91,0,2.88-2.12,2.88-4v-6.9"/><path class="cls-7" d="M14.62,59.12V70h4.6v2.3h15v-7a6.79,6.79,0,0,0,11.3,0l.5-.75-4-2.3-.32.5a2.2,2.2,0,0,1-4-1.22v-2.4a11.41,11.41,0,0,0-3.45-8.19,11.19,11.19,0,0,0-2.33-1.77c-.17.52-.36,1-.54,1.52-1.36,3.51-3.1,6.26-4.6,6.71-2.38-4.61-4.6-8-4.6-14V38.66a5.92,5.92,0,0,1,5.18-6,5.77,5.77,0,0,1,6.32,5.73V35a8,8,0,0,0-16.1,0v3.8c0,3.87,1.05,9.72,2.1,10.88A11.51,11.51,0,0,0,14.62,59.12Z"/><path class="cls-2" d="M14.62,59.12V70h4.6v2.3h15v-7a6.79,6.79,0,0,0,11.3,0l.5-.75-4-2.3-.32.5a2.2,2.2,0,0,1-4-1.22v-2.4a11.41,11.41,0,0,0-3.45-8.19,11.19,11.19,0,0,0-2.33-1.77c-.17.52-.36,1-.54,1.52-1.36,3.51-3.1,6.26-4.6,6.71-2.38-4.61-4.6-8-4.6-14V38.66a5.92,5.92,0,0,1,5.18-6,5.77,5.77,0,0,1,6.32,5.73V35a8,8,0,0,0-16.1,0v3.8c0,3.87,1.05,9.72,2.1,10.88A11.51,11.51,0,0,0,14.62,59.12Z"/><path class="cls-5" d="M46,59.91a2.31,2.31,0,0,0-3.15.84L42,62.28l0,0,4,2.3.88-1.48A2.31,2.31,0,0,0,46,59.91Z"/><line class="cls-2" x1="19.22" y1="56.82" x2="19.22" y2="70.04"/><line class="cls-2" x1="34.17" y1="56.82" x2="34.17" y2="70.04"/><path class="cls-5" d="M31.3,50.68V62.57a2.87,2.87,0,0,0,2.87,2.87V53.21a4.69,4.69,0,0,0-2.33-4.05C31.67,49.68,31.48,50.18,31.3,50.68Z"/><path class="cls-5" d="M17.47,51.54a11.49,11.49,0,0,1,1.75,6.08v7.82a2.88,2.88,0,0,0,2.88-2.87V57a11.43,11.43,0,0,0-1.52-5.71l-1-1.65A10.35,10.35,0,0,0,17.47,51.54Z"/><line class="cls-2" x1="26.7" y1="57.39" x2="26.7" y2="72.34"/><path class="cls-5" d="M37.62,56.82a1.15,1.15,0,0,0-.88,1.9,2.87,2.87,0,0,0,2.16,1H50.4a2.88,2.88,0,0,0,2.87-2.87Z"/><path class="cls-5" d="M50.4,56.82h2.87l3.06-13.24a1.43,1.43,0,0,0-.27-1.18A1.4,1.4,0,0,0,53.6,43Z"/></g></g></svg>