<svg id="Duotone" xmlns="http://www.w3.org/2000/svg" viewBox="0 0 100 112"><defs><style>.cls-1{fill:#f0f2ff;}.cls-2,.cls-9{fill:none;}.cls-2,.cls-4,.cls-6,.cls-7,.cls-8,.cls-9{stroke:#4550e5;stroke-linejoin:round;}.cls-2,.cls-4,.cls-6{stroke-linecap:round;}.cls-3,.cls-6,.cls-8{fill:#d6daff;}.cls-4,.cls-5,.cls-7{fill:#fff;}</style></defs><title>94- spy-male-african-american</title><g id="Icons"><g id="Background"><g id="New_Symbol_85-16" data-name="New Symbol 85"><path class="cls-1" d="M90,55.83a40,40,0,1,0-76.43,16.5H86.44A39.85,39.85,0,0,0,90,55.83Z"/><line class="cls-2" x1="11" y1="72.33" x2="89" y2="72.33"/><line class="cls-2" x1="6.5" y1="72.33" x2="9" y2="72.33"/><line class="cls-2" x1="91" y1="72.33" x2="93.5" y2="72.33"/></g></g><g id="Scene"><path class="cls-3" d="M73.86,68.72c.48,4.07,3,7.82,7.92,7.82,6.33,0,7.21-6,7.41-8.13l-5.8-1.63c-.21,2.32-.51,3.75-1.6,3.75-1.35,0-1.91-2-1.91-3.37V64.7a15.65,15.65,0,0,0-31.29,0v7.63H73.86Z"/><path class="cls-2" d="M73.86,68.72c.48,4.07,3,7.82,7.92,7.82,6.33,0,7.21-6,7.41-8.13l-5.8-1.63c-.21,2.32-.51,3.75-1.6,3.75-1.35,0-1.91-2-1.91-3.37V64.7a15.65,15.65,0,0,0-31.29,0v7.63H73.86Z"/><path class="cls-2" d="M54.34,39.81l-.49,1.89c-3.59-.21-3.16,3.45-1.3,4.47a1.28,1.28,0,0,0,2-.62,1.22,1.22,0,0,0-.86-1.62,2.37,2.37,0,0,0-3.21,2c-.33,1.47.37,3.66,1.73,4.19,1.08.41,2-.34,1.8-1.21-.26-1.41-2.4-1.8-3.61-.6-1.84,1.85.49,4.76,2.8,5.37"/><line class="cls-2" x1="54.61" y1="72.33" x2="54.61" y2="63.11"/><line class="cls-2" x1="73.86" y1="68.72" x2="73.86" y2="63.11"/><polygon class="cls-4" points="67.84 48.87 64.23 53.68 60.62 48.87 59.42 53.68 64.23 68.12 69.05 53.68 67.84 48.87"/><polygon class="cls-5" points="67.84 48.87 64.23 53.68 60.62 48.87 60.62 46.26 67.84 46.26 67.84 48.87"/><polygon class="cls-2" points="67.84 48.87 64.23 53.68 60.62 48.87 60.62 46.26 67.84 46.26 67.84 48.87"/><path class="cls-6" d="M64.23,68.12l7.22-7.82-.6-3.64,3-2.38a8.22,8.22,0,0,0-6-5.42l1.21,4.82Z"/><path class="cls-6" d="M64.23,68.12,57,60.3l.6-3.64-3-2.38a8.2,8.2,0,0,1,6-5.42l-1.2,4.82Z"/><line class="cls-2" x1="64.23" y1="56.09" x2="64.23" y2="72.3"/><rect class="cls-6" x="63.03" y="53.68" width="2.41" height="2.41"/><path class="cls-6" d="M65.44,53.68l2.4-1.2a1,1,0,0,1,.92,0,1,1,0,0,1,.52.77,7.06,7.06,0,0,1-.72,4.45,1,1,0,0,1-.68.44A1,1,0,0,1,67.1,58a6.48,6.48,0,0,1-1.66-1.86Z"/><path class="cls-6" d="M63,53.68l-2.4-1.2a1,1,0,0,0-1.44.79,7.06,7.06,0,0,0,.71,4.45,1,1,0,0,0,.69.44,1,1,0,0,0,.78-.21A6.48,6.48,0,0,0,63,56.09Z"/><ellipse class="cls-1" cx="40.6" cy="82.33" rx="19.29" ry="1.5"/><path class="cls-4" d="M83.87,62.25l2.41-5.9a1.2,1.2,0,0,1,2.23.9l-2.62,6.48Z"/><path class="cls-4" d="M84.8,52a1,1,0,0,0-.54-1.3l-.38-.15a1,1,0,0,0-1.31.54L77.1,64.47a1,1,0,0,0,.35,1.2l1.37,1Z"/><path class="cls-2" d="M85.68,57.79l3,1.65a1.21,1.21,0,0,1,.48,1.48l-1.65,4"/><rect class="cls-4" x="78.69" y="56.67" width="4.81" height="2.41" transform="translate(-3.16 111.04) rotate(-67.77)"/><path class="cls-4" d="M78.82,66.62l1.05.73a1.47,1.47,0,0,0,1.24.2,3,3,0,0,1,3.07.85,9.16,9.16,0,0,0,2.49,2,1.34,1.34,0,0,0,1.9-.65l1.29-3.15-6-4.4,3-7.24a1.21,1.21,0,0,0-.66-1.57l-1.67-.68Z"/><line class="cls-2" x1="81.15" y1="51.39" x2="82.26" y2="51.85"/><path class="cls-5" d="M90.59,65.11A1.21,1.21,0,0,0,90,63.5L87.3,62.22a1.19,1.19,0,0,0-1.6.57L85,64.11a2.81,2.81,0,0,0,1,3.62,2.71,2.71,0,0,0,3.85-1.16Z"/><path class="cls-2" d="M90.59,65.11A1.21,1.21,0,0,0,90,63.5L87.3,62.22a1.19,1.19,0,0,0-1.6.57L85,64.11a2.81,2.81,0,0,0,1,3.62,2.71,2.71,0,0,0,3.85-1.16Z"/><path class="cls-7" d="M45.38,78.29H48.1l-5.81-18a1.22,1.22,0,0,0-1.16-.84H39.3Z"/><path class="cls-5" d="M21.65,78.29H45.38L39.3,59.43H17.24a1.21,1.21,0,0,0-1,.5A1.23,1.23,0,0,0,16.08,61Z"/><path class="cls-7" d="M21.65,78.29h25v3H24.08a2.43,2.43,0,0,1-2.43-2.44Z"/><path class="cls-7" d="M46.6,78.29h11a.61.61,0,0,1,.61.6,2.44,2.44,0,0,1-2.44,2.44H46.6Z"/><path class="cls-8" d="M31.8,68.18a1.32,1.32,0,0,1,.65-1.13,1.4,1.4,0,0,0-1.1-.6c-.46,0-.9.28-1.14.28s-.6-.27-1-.26a1.45,1.45,0,0,0-1.23.75,3.09,3.09,0,0,0,.38,3c.25.36.55.77.94.76s.52-.25,1-.25.58.25,1,.24.67-.37.92-.74a2.91,2.91,0,0,0,.41-.85A1.31,1.31,0,0,1,31.8,68.18Z"/><line class="cls-2" x1="30.78" y1="64.9" x2="31.33" y2="64.35"/><path class="cls-9" d="M21.65,78.29H45.38L39.3,59.43H17.24a1.21,1.21,0,0,0-1,.5A1.23,1.23,0,0,0,16.08,61Z"/><path class="cls-4" d="M74.22,35.82v-2.5a10,10,0,1,0-20,0v2.5a2,2,0,0,0,0,4h.12a10,10,0,0,0,19.76,0h.12a2,2,0,0,0,0-4Z"/><circle class="cls-3" cx="58.47" cy="40.07" r="1.25"/><circle class="cls-3" cx="69.97" cy="40.07" r="1.25"/><path class="cls-2" d="M67.22,42.61a4.32,4.32,0,0,1-6,0"/><path class="cls-5" d="M77.59,31.73a8.73,8.73,0,0,0-1.78-1.26c1.86.08,3.33-.42,3.45-1.27s-1.61-2.05-3.9-2.38a7.78,7.78,0,0,0-3,.1l-.19-.24a8.56,8.56,0,0,0,2,0c2.3-.3,4.06-1.33,3.94-2.32s-2.1-1.55-4.4-1.25a7.84,7.84,0,0,0-2.8.85,6.67,6.67,0,0,0,.53-.43C73.13,22,74,20.09,73.33,19.35s-2.61-.08-4.33,1.47a7.3,7.3,0,0,0-2,2.68c-.26-.07-.52-.14-.79-.19a8.53,8.53,0,0,0,1-1.54c1.08-2.05,1.23-4.09.35-4.55s-2.31.71-3.37,2.59c-1.06-1.88-2.53-3-3.37-2.59s-.73,2.5.34,4.55a9.12,9.12,0,0,0,1,1.54c-.27.05-.54.12-.8.19a7.26,7.26,0,0,0-2-2.68c-1.73-1.55-3.66-2.21-4.33-1.47S55.3,22,57,23.5a5.25,5.25,0,0,0,.53.43,7.83,7.83,0,0,0-2.81-.85c-2.3-.3-4.26.27-4.39,1.25s1.64,2,3.94,2.32a8.56,8.56,0,0,0,2,0l-.19.24a7.8,7.8,0,0,0-3-.1c-2.3.33-4,1.4-3.9,2.38s1.59,1.35,3.45,1.27a8.73,8.73,0,0,0-1.78,1.26c-1.72,1.55-2.57,3.41-1.9,4.15.53.59,1.85.28,3.24-.65-.18.29-.35.59-.51.91-1,2.09-1.1,4.13-.21,4.57.56.26,1.35-.14,2.12-1a2,2,0,0,1,.63-3.9c1,0,1.48.69,1.48,1.7a10.11,10.11,0,0,0,.21-4.24c1.06.35,2.79-1.16,2.79-1.16v-2.4a27.63,27.63,0,0,0,5.52,1.09,27.65,27.65,0,0,0,5.51-1.09v2.4s1.74,1.51,2.79,1.16a10.11,10.11,0,0,0,.21,4.24c0-1,.49-1.7,1.49-1.7a2,2,0,0,1,.63,3.9c.76.85,1.56,1.25,2.11,1,.9-.44.81-2.48-.2-4.57-.16-.32-.33-.62-.51-.91,1.38.93,2.71,1.24,3.24.65C80.16,35.14,79.31,33.28,77.59,31.73Z"/><path class="cls-2" d="M77.59,31.73a8.73,8.73,0,0,0-1.78-1.26c1.86.08,3.33-.42,3.45-1.27s-1.61-2.05-3.9-2.38a7.78,7.78,0,0,0-3,.1l-.19-.24a8.56,8.56,0,0,0,2,0c2.3-.3,4.06-1.33,3.94-2.32s-2.1-1.55-4.4-1.25a7.84,7.84,0,0,0-2.8.85,6.67,6.67,0,0,0,.53-.43C73.13,22,74,20.09,73.33,19.35s-2.61-.08-4.33,1.47a7.3,7.3,0,0,0-2,2.68c-.26-.07-.52-.14-.79-.19a8.53,8.53,0,0,0,1-1.54c1.08-2.05,1.23-4.09.35-4.55s-2.31.71-3.37,2.59c-1.06-1.88-2.53-3-3.37-2.59s-.73,2.5.34,4.55a9.12,9.12,0,0,0,1,1.54c-.27.05-.54.12-.8.19a7.26,7.26,0,0,0-2-2.68c-1.73-1.55-3.66-2.21-4.33-1.47S55.3,22,57,23.5a5.25,5.25,0,0,0,.53.43,7.83,7.83,0,0,0-2.81-.85c-2.3-.3-4.26.27-4.39,1.25s1.64,2,3.94,2.32a8.56,8.56,0,0,0,2,0l-.19.24a7.8,7.8,0,0,0-3-.1c-2.3.33-4,1.4-3.9,2.38s1.59,1.35,3.45,1.27a8.73,8.73,0,0,0-1.78,1.26c-1.72,1.55-2.57,3.41-1.9,4.15.53.59,1.85.28,3.24-.65-.18.29-.35.59-.51.91-1,2.09-1.1,4.13-.21,4.57.56.26,1.35-.14,2.12-1a2,2,0,0,1,.63-3.9c1,0,1.48.69,1.48,1.7a10.11,10.11,0,0,0,.21-4.24c1.06.35,2.79-1.16,2.79-1.16v-2.4a27.63,27.63,0,0,0,5.52,1.09,27.65,27.65,0,0,0,5.51-1.09v2.4s1.74,1.51,2.79,1.16a10.11,10.11,0,0,0,.21,4.24c0-1,.49-1.7,1.49-1.7a2,2,0,0,1,.63,3.9c.76.85,1.56,1.25,2.11,1,.9-.44.81-2.48-.2-4.57-.16-.32-.33-.62-.51-.91,1.38.93,2.71,1.24,3.24.65C80.16,35.14,79.31,33.28,77.59,31.73Z"/><path class="cls-3" d="M55.74,34.42a1,1,0,0,0-.79.39,1,1,0,0,0-.19.85c.5,2.05,2.13,4.18,4.06,4.18h2.43a1.23,1.23,0,0,0,.94-.45l1.71-2.14a.42.42,0,0,1,.67,0l1.71,2.14a1.22,1.22,0,0,0,.94.45h2.43c1.93,0,3.55-2.13,4-4.18a1,1,0,0,0-.18-.85,1,1,0,0,0-.79-.39Z"/><path class="cls-5" d="M59.9,39.84l4.72-5.42H55.74a1,1,0,0,0-.79.39,1,1,0,0,0-.19.85c.5,2.05,2.13,4.18,4.06,4.18Z"/><path class="cls-2" d="M55.74,34.42a1,1,0,0,0-.79.39,1,1,0,0,0-.19.85c.5,2.05,2.13,4.18,4.06,4.18h2.43a1.23,1.23,0,0,0,.94-.45l1.71-2.14a.42.42,0,0,1,.67,0l1.71,2.14a1.22,1.22,0,0,0,.94.45h2.43c1.93,0,3.55-2.13,4-4.18a1,1,0,0,0-.18-.85,1,1,0,0,0-.79-.39Z"/></g></g></svg>