<svg id="Layer_1" data-name="Layer 1" xmlns="http://www.w3.org/2000/svg" width="400" height="400" viewBox="0 0 400 400">
  <title>legalese-section-logo-20160611</title>
  <path d="M54.2159,162.8315c0-28.6157,14.1123-53.3115,30.5752-53.3115,14.8965,0,32.5371,4.312,41.16,10.584l-0.3916,8.2319c-23.1279,3.92-39.5918,21.168-39.5918,41.16,0,12.5439,7.84,21.9521,19.208,21.9521,37.6309,0,48.2148-94.4717,108.9746-94.4717,22.7363,0,42.7285,17.248,56.0566,38.8076a44.55,44.55,0,0,1,20.3838-4.7041c32.9277,0,59.1914,29.792,59.1914,68.208,0,25.0874-9.4072,47.8237-19.6,47.8237-12.1514,0-35.6719-6.6641-40.376-11.76v-7.4482c15.68-6.2725,26.6563-19.9922,26.6563-32.9277a16.9091,16.9091,0,0,0-17.248-17.248c-36.0645,0-51.7441,93.6875-108.584,93.6875-22.3437,0-43.5117-15.2881-57.2314-37.6318a44.1135,44.1135,0,0,1-18.8154,4.3115C84.7911,238.4873,54.2159,205.9512,54.2159,162.8315Zm98.3916,57.2319c6.2715,5.88,13.3281,9.0156,22.3438,9.0156,31.752,0,49.3916-52.9194,78.3994-81.1436-6.2715-6.6636-13.72-10.1919-22.7354-10.1919C198.0792,137.7437,181.2228,191.4478,152.6075,220.0635Z"/>
  <g>
    <path d="M71.9376,358.751L72.26,355.623c2.3467-.3682,3.082-1.2881,3.082-3.957V334.1387c0-1.9326-.3213-2.3926-1.6562-2.3926-0.5059,0-1.38.0459-1.38,0.0459l-0.2295-.3682,0.3213-2.7139c1.1963,0,4.1406.0459,6.2568,0.0459,2.07,0,7.1309-.3223,7.1309-0.3223L85.4171,331.7c-3.1279.3682-3.3584,0.9658-3.4961,3.3584-0.3682,4.9688-.5059,11.2715-0.5059,16.8379,0,2.3.46,2.76,2.8525,2.76,4.3242,0,5.2441-1.0576,5.8887-6.9922l3.91-.4141,0.3223,0.46s-0.7822,5.0146-1.2422,10.4434l-0.4141.5059s-7.499-.3682-12.9277-0.3682A73.5706,73.5706,0,0,0,71.9376,358.751Z"/>
    <path d="M115.1788,354.6563c5.7051,0,6.5332-.6436,7.1768-5.2441l3.9111-.3223,0.3213,0.46S125.76,353.69,125.3,358.1074l-0.4141.5059s-8.6484-.3223-14.3535-0.3223a77.951,77.951,0,0,0-8.0049.46l0.3682-3.1279c2.53-.3682,3.3125-1.2881,3.3125-3.957L106.254,334.23c0-1.9785-.2764-2.4844-1.5186-2.4844-0.5059,0-1.38.0918-1.38,0.0918l-0.3223-.4141,0.3682-2.8066s5.0605,0.1387,8.5107.1387a121.8985,121.8985,0,0,0,13.9863-.5527l0.3682,0.5068a66.02,66.02,0,0,0-1.0586,8.373l-4.2324.2754s0.0918-1.1963.0918-1.84c0-2.53-.6436-2.8984-5.7969-2.8984-2.1621,0-2.3916.1377-2.4375,1.5186l-0.3223,7.1309c0.9658,0,2.9443.0459,4.2783,0.0459,1.5186,0,5.3369-.3682,5.3369-0.3682l0.3682,0.4141-0.6445,3.9561s-3.6807-.1377-5.98-0.1377a29.1508,29.1508,0,0,0-3.4961.2754c-0.0928,3.3584-.1387,5.1992-0.1387,6.4414C112.2345,354.335,112.5568,354.6563,115.1788,354.6563Z"/>
    <path d="M162.6056,344.8115c-1.6094,1.0576-1.8857,2.3467-1.8857,7.5908a17.5374,17.5374,0,0,0,.3223,4.0029l-0.4141.5977a29.6019,29.6019,0,0,1-10.8574,1.84c-8.4648,0-13.71-5.5205-13.71-14.5371,0-9.9834,6.165-16.1025,16.3779-16.1025a49.55,49.55,0,0,1,9.1094,1.15l0.3223,0.5986a50.704,50.704,0,0,0-1.1963,8.4648l-4.5547.2754a23.4444,23.4444,0,0,0,.1377-2.4844c0-2.5762-1.38-3.542-4.9219-3.542-5.4746,0-8.1436,3.2207-8.1436,10.0752,0,7.5908,2.8066,11.7773,7.7295,11.7773a8.2118,8.2118,0,0,0,4.416-1.1963v-4.2783c0-1.7939-.3682-2.208-2.0244-2.208h-2.3457l-0.2764-.3682,0.5059-3.3125c1.1045,0,3.8643.0918,6.3945,0.0918a40.3131,40.3131,0,0,0,4.6934-.2295Z"/>
    <path d="M200.2794,355.3926l0.1846,0.3223-0.3223,2.7139s-3.6348-.1377-5.6592-0.1377c-3.9561,0-7.7744.3682-7.7744,0.3682l-0.2764-.3682,0.23-2.7607c2.99-.2754,3.542-0.5518,3.542-1.7021a8.1288,8.1288,0,0,0-.2295-1.5176l-0.9209-3.4971c-1.1953-.0459-3.1279-0.0459-4.1855-0.0459a38.8377,38.8377,0,0,0-4.3711.3223l-1.15,3.45a5.7349,5.7349,0,0,0-.2754,1.4268c0,1.0576.5518,1.38,2.1162,1.38h1.9775l0.1846,0.3223-0.3223,2.8984s-3.7725-.2764-6.7168-0.2764c-2.4844,0-5.5664.1377-5.5664,0.1377l0.3682-3.082c1.4258-.23,2.2539-1.0117,2.99-3.0361l8.1885-23.3252,7.3154-.7354,0.5059,0.2295s4.1406,15.9639,6.5791,23.7393C197.3351,354.3809,198.2091,355.209,200.2794,355.3926Zm-18.6777-10.2588h3.22c1.0127,0,2.4385-.0918,3.4043-0.1846l-2.668-10.1211h-0.6436Z"/>
    <path d="M208.4181,358.751l0.3223-3.1279c2.3467-.3682,3.082-1.2881,3.082-3.957V334.1387c0-1.9326-.3213-2.3926-1.6562-2.3926-0.5059,0-1.38.0459-1.38,0.0459l-0.2295-.3682,0.3213-2.7139c1.1963,0,4.1406.0459,6.2568,0.0459,2.07,0,7.1309-.3223,7.1309-0.3223L221.8976,331.7c-3.1279.3682-3.3584,0.9658-3.4961,3.3584-0.3682,4.9688-.5059,11.2715-0.5059,16.8379,0,2.3.46,2.76,2.8516,2.76,4.3252,0,5.2451-1.0576,5.8887-6.9922l3.9111-.4141,0.3213,0.46s-0.7812,5.0146-1.2412,10.4434l-0.4141.5059s-7.499-.3682-12.9277-0.3682A73.5706,73.5706,0,0,0,208.4181,358.751Z"/>
    <path d="M251.6593,354.6563c5.7051,0,6.5332-.6436,7.1768-5.2441l3.91-.3223,0.3223,0.46s-0.8281,4.1406-1.2881,8.5576l-0.4141.5059s-8.6484-.3223-14.3535-0.3223a77.951,77.951,0,0,0-8.0049.46l0.3682-3.1279c2.53-.3682,3.3125-1.2881,3.3125-3.957l0.0459-17.4355c0-1.9785-.2764-2.4844-1.5186-2.4844-0.5059,0-1.38.0918-1.38,0.0918l-0.3223-.4141,0.3682-2.8066s5.0605,0.1387,8.5107.1387a121.8985,121.8985,0,0,0,13.9863-.5527l0.3672,0.5068a65.9156,65.9156,0,0,0-1.0576,8.373l-4.2324.2754s0.0918-1.1963.0918-1.84c0-2.53-.6445-2.8984-5.7969-2.8984-2.1621,0-2.3916.1377-2.4385,1.5186l-0.3213,7.1309c0.9658,0,2.9443.0459,4.2783,0.0459,1.5176,0,5.3369-.3682,5.3369-0.3682l0.3672,0.4141-0.6436,3.9561s-3.6807-.1377-5.98-0.1377a29.17,29.17,0,0,0-3.4971.2754c-0.0918,3.3584-.1377,5.1992-0.1377,6.4414C248.715,354.335,249.0372,354.6563,251.6593,354.6563Z"/>
    <path d="M273.2775,357.0947l-0.3682-.6436a58.2783,58.2783,0,0,0,.7363-7.8213l3.8643-.3223c0,5.0605,1.1963,6.4414,5.0605,6.4414,2.8984,0,4.7842-1.3809,4.7842-3.543,0-2.53-3.3584-3.8184-6.8086-5.5205-3.5879-1.748-7.2686-3.91-7.2686-8.2812,0-5.3818,5.1064-9.2012,12.2832-9.2012a24.74,24.74,0,0,1,7.9131,1.2422l0.3223,0.5986a69.3587,69.3587,0,0,0-1.1045,7.9131l-3.4961.2754-0.4141-.3213s0.0459-.7363.0459-1.61c0-2.6689-1.2422-3.7266-4.4629-3.7266-2.53,0-4.37,1.334-4.37,3.2666,0,2.3457,2.8525,3.68,6.0264,5.1523,3.8643,1.84,8.1895,3.9561,8.1895,8.5566,0,5.6133-5.0605,9.293-12.8359,9.293A18.6125,18.6125,0,0,1,273.2775,357.0947Z"/>
    <path d="M316.84,354.6563c5.7051,0,6.5332-.6436,7.1768-5.2441l3.91-.3223,0.3223,0.46s-0.8281,4.1406-1.2881,8.5576l-0.4141.5059s-8.6484-.3223-14.3535-0.3223a77.951,77.951,0,0,0-8.0049.46l0.3682-3.1279c2.53-.3682,3.3125-1.2881,3.3125-3.957l0.0459-17.4355c0-1.9785-.2764-2.4844-1.5186-2.4844-0.5059,0-1.38.0918-1.38,0.0918l-0.3223-.4141,0.3682-2.8066s5.0605,0.1387,8.5107.1387a121.8667,121.8667,0,0,0,13.9854-.5527l0.3682,0.5068a65.9156,65.9156,0,0,0-1.0576,8.373l-4.2324.2754s0.0918-1.1963.0918-1.84c0-2.53-.6445-2.8984-5.7969-2.8984-2.1621,0-2.3916.1377-2.4385,1.5186L314.172,341.27c0.9658,0,2.9443.0459,4.2783,0.0459,1.5176,0,5.3369-.3682,5.3369-0.3682l0.3672,0.4141-0.6436,3.9561s-3.6807-.1377-5.98-0.1377a29.17,29.17,0,0,0-3.4971.2754c-0.0918,3.3584-.1377,5.1992-0.1377,6.4414C313.8956,354.335,314.2179,354.6563,316.84,354.6563Z"/>
  </g>
</svg>
