<svg xmlns="http://www.w3.org/2000/svg" version="1.1" xmlns:xlink="http://www.w3.org/1999/xlink" xmlns:svgjs="http://svgjs.com/svgjs" viewBox="0 0 16 16" height="16" width="16"><title>Exported from Streamline App (https://app.streamlineicons.com)</title><g transform="matrix(0.6666666666666666,0,0,0.6666666666666666,0,0)"><path d="M 12,1.001c6.075,0,11,4.925,11,11s-4.925,11-11,11s-11-4.925-11-11S5.925,1.001,12,1.001z " stroke="#3b45ff" fill="#fff" stroke-width="1" stroke-linecap="round" stroke-linejoin="round"></path><path d="M 12,17 c-0.138,0-0.25,0.112-0.25,0.25S11.862,17.5,12,17.5s0.25-0.112,0.25-0.25S12.138,17,12,17L12,17 " stroke="#3b45ff" fill="#fff" stroke-width="1" stroke-linecap="round" stroke-linejoin="round"></path><path d="M 9,10.005c0-1.657,1.344-3,3-3 c1.657,0,3,1.344,3,3c0,1.193-0.707,2.272-1.8,2.749c-0.729,0.318-1.2,1.038-1.2,1.833V15" stroke="#3b45ff" fill="#fff" stroke-width="1" stroke-linecap="round" stroke-linejoin="round"></path></g></svg>
