<svg xmlns="http://www.w3.org/2000/svg" version="1.1" xmlns:xlink="http://www.w3.org/1999/xlink" xmlns:svgjs="http://svgjs.com/svgjs" viewBox="0 0 40 40" width="40" height="40"><title>Exported from Streamline App (https://app.streamlineicons.com)</title><g transform="matrix(1.6666666666666667,0,0,1.6666666666666667,0,0)"><path d="M 5.246,23.248h-3c-0.828,0-1.5-0.672-1.5-1.5v-19.5c0-0.828,0.672-1.5,1.5-1.5h10.629 c0.398,0,0.78,0.158,1.061,0.44l5.871,5.871c0.281,0.281,0.439,0.663,0.439,1.061v4.628 " stroke="#1464f6" fill="none" stroke-width="1.5" stroke-linecap="round" stroke-linejoin="round"></path><path d="M 20.246,8.248h-6 c-0.828,0-1.5-0.672-1.5-1.5v-6 " stroke="#1464f6" fill="none" stroke-width="1.5" stroke-linecap="round" stroke-linejoin="round"></path><path d="M 8.246,23.248v-7.5 " stroke="#1464f6" fill="none" stroke-width="1.5" stroke-linecap="round" stroke-linejoin="round"></path><path d="M 8.246,15.748H9c1.243,0,2.25,1.007,2.25,2.25c0,1.243-1.007,2.25-2.25,2.25 l0,0H8.25 " stroke="#1464f6" fill="none" stroke-width="1.5" stroke-linecap="round" stroke-linejoin="round"></path><path d="M 14.246,23.248c1.657,0,3-1.343,3-3v-1.5c0-1.657-1.343-3-3-3V23.248z " stroke="#1464f6" fill="none" stroke-width="1.5" stroke-linecap="round" stroke-linejoin="round"></path><path d="M 20.246,23.248v-6c0-0.828,0.672-1.5,1.5-1.5h1.5 " stroke="#1464f6" fill="none" stroke-width="1.5" stroke-linecap="round" stroke-linejoin="round"></path><path d="M 20.246,20.248h2.25" stroke="#1464f6" fill="none" stroke-width="1.5" stroke-linecap="round" stroke-linejoin="round"></path></g></svg>