<svg xmlns="http://www.w3.org/2000/svg" version="1.1" xmlns:xlink="http://www.w3.org/1999/xlink" xmlns:svgjs="http://svgjs.com/svgjs" viewBox="0 0 24 24" height="24" width="24"><title>Exported from Streamline App (https://app.streamlineicons.com)</title><g transform="matrix(1,0,0,1,0,0)"><path d="M 9.5,9.5c0-1.657,1.343-3,3-3s3,1.343,3,3s-1.343,3-3,3v3 " stroke="#000000" fill="none" stroke-width="1" stroke-linecap="round" stroke-linejoin="round"></path><path d="M 12.499,17.5L12.499,17.5 " stroke="#000000" fill="none" stroke-width="1" stroke-linecap="round" stroke-linejoin="round"></path><path d="M 12.5,17.5 c-0.138,0-0.25,0.112-0.25,0.25S12.362,18,12.5,18s0.25-0.112,0.25-0.25S12.638,17.5,12.5,17.5 " stroke="#000000" fill="none" stroke-width="1" stroke-linecap="round" stroke-linejoin="round"></path><path d="M 23.5,12 c0-1.639-1-3.113-2.523-3.718c0.876-2.028-0.057-4.382-2.085-5.259c-1.012-0.438-2.161-0.438-3.173,0 c-0.815-2.053-3.14-3.057-5.193-2.243C9.501,1.187,8.69,1.998,8.283,3.023C6.255,2.146,3.901,3.079,3.024,5.107 c-0.438,1.013-0.438,2.162,0,3.175c-2.053,0.815-3.057,3.14-2.243,5.193c0.407,1.025,1.218,1.836,2.243,2.243 c-0.876,2.028,0.057,4.382,2.085,5.259c1.012,0.438,2.161,0.438,3.173,0c0.815,2.053,3.14,3.057,5.193,2.243 c1.025-0.407,1.836-1.218,2.243-2.243c2.028,0.876,4.382-0.058,5.258-2.086c0.437-1.013,0.437-2.161,0-3.173 C22.5,15.113,23.5,13.639,23.5,12z" stroke="#000000" fill="none" stroke-width="1" stroke-linecap="round" stroke-linejoin="round"></path></g></svg>