<svg xmlns="http://www.w3.org/2000/svg" version="1.1" xmlns:xlink="http://www.w3.org/1999/xlink" xmlns:svgjs="http://svgjs.com/svgjs" viewBox="0 0 16 16" width="16" height="16"><title>Exported from Streamline App (https://app.streamlineicons.com)</title><g transform="matrix(0.6666666666666666,0,0,0.6666666666666666,0,0)"><path d="M 12,0.75c6.213,0,11.25,5.037,11.25,11.25S18.213,23.25,12,23.25S0.75,18.213,0.75,12S5.787,0.75,12,0.75z " stroke="#6ef5f6" fill="none" stroke-width="1.5" stroke-linecap="round" stroke-linejoin="round"></path><path d="M 7.079,15.75c0.828,0,1.5-0.672,1.5-1.5c0-0.123-0.015-0.245-0.045-0.364l-0.75-3C7.617,10.218,7.017,9.75,6.329,9.75H0.976 c-0.843,4.143,0.708,8.409,4.016,11.042L6,15.75H7.079z " stroke="#6ef5f6" fill="none" stroke-width="1.5" stroke-linecap="round" stroke-linejoin="round"></path><path d="M 20.985,5.25h-4.064c-0.688,0-1.288,0.468-1.455,1.136l-0.75,3 c-0.201,0.804,0.287,1.618,1.091,1.819c0.119,0.03,0.241,0.045,0.364,0.045h1.579L18.541,16c0.121,0.723,0.747,1.253,1.48,1.253 h1.925c2.039-3.847,1.665-8.527-0.961-12L20.985,5.25z" stroke="#6ef5f6" fill="none" stroke-width="1.5" stroke-linecap="round" stroke-linejoin="round"></path></g></svg>