<svg xmlns="http://www.w3.org/2000/svg" version="1.1" xmlns:xlink="http://www.w3.org/1999/xlink" xmlns:svgjs="http://svgjs.com/svgjs" viewBox="0 0 24 24" height="24" width="24"><title>Exported from Streamline App (https://app.streamlineicons.com)</title><g transform="matrix(1,0,0,1,0,0)"><path d="M 8.492,11.265l-1.06,4.243l4.242-1.061l6.364-6.364l-3.182-3.182L8.492,11.265z " stroke="#000000" fill="none" stroke-width="1.5" stroke-linecap="round" stroke-linejoin="round"></path><path d="M 21.751,4.371l1.06,1.06 c0.586,0.586,0.586,1.535,0.001,2.121c0,0,0,0-0.001,0.001l-3.311,3.31 " stroke="#000000" fill="none" stroke-width="1.5" stroke-linecap="round" stroke-linejoin="round"></path><path d="M 18.038,8.083l3.713-3.712 c0.586-0.586,0.586-1.535,0.001-2.121c0,0,0,0-0.001-0.001l-1.061-1.06c-0.586-0.586-1.535-0.586-2.121,0L14.856,4.9 " stroke="#000000" fill="none" stroke-width="1.5" stroke-linecap="round" stroke-linejoin="round"></path><path d="M 20.251,13.5 v3.128c0,0.398-0.158,0.78-0.44,1.061L14.69,22.81c-0.281,0.282-0.663,0.44-1.061,0.44H2.25c-0.828,0-1.5-0.672-1.5-1.5V2.25 c0-0.828,0.672-1.5,1.5-1.5H13.5 " stroke="#000000" fill="none" stroke-width="1.5" stroke-linecap="round" stroke-linejoin="round"></path><path d="M 14.251,23.115V18.75c0-0.828,0.672-1.5,1.5-1.5h4.365" stroke="#000000" fill="none" stroke-width="1.5" stroke-linecap="round" stroke-linejoin="round"></path></g></svg>