<svg xmlns="http://www.w3.org/2000/svg" version="1.1" xmlns:xlink="http://www.w3.org/1999/xlink" xmlns:svgjs="http://svgjs.com/svgjs" viewBox="0 0 24 24" height="24" width="24"><title>Exported from Streamline App (https://app.streamlineicons.com)</title><g transform="matrix(1,0,0,1,0,0)"><path d="M 8.246,19.5l3.97-3.97c0.293-0.293,0.768-0.293,1.061,0c0,0,0,0,0,0l1.939,1.939 c0.293,0.293,0.768,0.293,1.061,0c0,0,0,0,0,0l3.969-3.969 " stroke="#000000" fill="none" stroke-width="1.5" stroke-linecap="round" stroke-linejoin="round"></path><path d="M 2.246,0.75h19.5c0.828,0,1.5,0.672,1.5,1.5v19.5 c0,0.828-0.672,1.5-1.5,1.5h-19.5c-0.828,0-1.5-0.672-1.5-1.5V2.25C0.746,1.422,1.418,0.75,2.246,0.75z " stroke="#000000" fill="none" stroke-width="1.5" stroke-linecap="round" stroke-linejoin="round"></path><path d="M 8.246,3.75 c2.485,0,4.5,2.015,4.5,4.5s-2.015,4.5-4.5,4.5s-4.5-2.015-4.5-4.5S5.761,3.75,8.246,3.75z " stroke="#000000" fill="none" stroke-width="1.5" stroke-linecap="round" stroke-linejoin="round"></path><path d="M 8.246,3.75v4.5l3.182,3.182 " stroke="#000000" fill="none" stroke-width="1.5" stroke-linecap="round" stroke-linejoin="round"></path><path d="M 16.496,5.25h3 " stroke="#000000" fill="none" stroke-width="1.5" stroke-linecap="round" stroke-linejoin="round"></path><path d="M 16.496,8.25h3" stroke="#000000" fill="none" stroke-width="1.5" stroke-linecap="round" stroke-linejoin="round"></path></g></svg>