<svg xmlns="http://www.w3.org/2000/svg" version="1.1" xmlns:xlink="http://www.w3.org/1999/xlink" xmlns:svgjs="http://svgjs.com/svgjs" viewBox="0 0 24 24" height="24" width="24"><title>Exported from Streamline App (https://app.streamlineicons.com)</title><g transform="matrix(1,0,0,1,0,0)"><path d="M 16.5,23.248H21c0.414,0,0.75-0.336,0.75-0.75v-4.939c0-0.199-0.079-0.389-0.219-0.53l-1.06-1.061 c-0.14-0.141-0.331-0.22-0.53-0.22H16.5c-0.414,0-0.75,0.336-0.75,0.75v6C15.75,22.912,16.086,23.248,16.5,23.248z " stroke="#000000" fill="none" stroke-width="1.5" stroke-linecap="round" stroke-linejoin="round"></path><path d="M 16.5,9.748H21 c0.413,0,0.749-0.335,0.75-0.748V4.059c0-0.199-0.079-0.389-0.219-0.53l-1.06-1.061c-0.14-0.141-0.331-0.22-0.53-0.22H16.5 c-0.414,0-0.75,0.336-0.75,0.75V9C15.751,9.413,16.087,9.748,16.5,9.748z " stroke="#000000" fill="none" stroke-width="1.5" stroke-linecap="round" stroke-linejoin="round"></path><path d="M 2.25,0.748v1.5 " stroke="#000000" fill="none" stroke-width="1.5" stroke-linecap="round" stroke-linejoin="round"></path><path d="M 2.25,5.248v3 " stroke="#000000" fill="none" stroke-width="1.5" stroke-linecap="round" stroke-linejoin="round"></path><path d="M 2.25,11.248v3 " stroke="#000000" fill="none" stroke-width="1.5" stroke-linecap="round" stroke-linejoin="round"></path><path d="M 2.25,17.248v1.5c0,0.828,0.672,1.5,1.5,1.5h1.5 " stroke="#000000" fill="none" stroke-width="1.5" stroke-linecap="round" stroke-linejoin="round"></path><path d="M 8.25,20.248h3 " stroke="#000000" fill="none" stroke-width="1.5" stroke-linecap="round" stroke-linejoin="round"></path><path d="M 14.25,20.248h1.5 " stroke="#000000" fill="none" stroke-width="1.5" stroke-linecap="round" stroke-linejoin="round"></path><path d="M 2.25,6.748h3 " stroke="#000000" fill="none" stroke-width="1.5" stroke-linecap="round" stroke-linejoin="round"></path><path d="M 8.25,6.748h3 " stroke="#000000" fill="none" stroke-width="1.5" stroke-linecap="round" stroke-linejoin="round"></path><path d="M 14.25,6.748h1.5" stroke="#000000" fill="none" stroke-width="1.5" stroke-linecap="round" stroke-linejoin="round"></path></g></svg>