<svg xmlns="http://www.w3.org/2000/svg" version="1.1" xmlns:xlink="http://www.w3.org/1999/xlink" xmlns:svgjs="http://svgjs.com/svgjs" viewBox="0 0 24 24" height="24" width="24"><title>Exported from Streamline App (https://app.streamlineicons.com)</title><g transform="matrix(1,0,0,1,0,0)"><path d="M 12,23.251c-0.507-1.667-3.918-3.617-9.843-3.886c-0.795-0.049-1.412-0.711-1.407-1.507V4.507 C0.746,3.679,1.415,3.004,2.243,3C2.245,3,2.248,3,2.25,3 " stroke="#000000" fill="none" stroke-width="1.5" stroke-linecap="round" stroke-linejoin="round"></path><path d="M 12,23.251c0.507-1.667,3.918-3.617,9.843-3.886 c0.795-0.049,1.412-0.711,1.407-1.507V4.507C23.254,3.679,22.585,3.004,21.757,3c-0.002,0-0.005,0-0.007,0 " stroke="#000000" fill="none" stroke-width="1.5" stroke-linecap="round" stroke-linejoin="round"></path><path d="M 12,15.001v8.25 " stroke="#000000" fill="none" stroke-width="1.5" stroke-linecap="round" stroke-linejoin="round"></path><path d="M 13.224,1.293c-0.802-0.361-1.672-0.546-2.552-0.542c-2.985,0-5.4,2.049-5.4,4.576c0.095,1.962,1.418,3.65,3.3,4.213 c0.767,0.274,1.4,0.051,1.845-0.966c0.251-0.647,0.89-1.058,1.583-1.018 " stroke="#000000" fill="none" stroke-width="1.5" stroke-linecap="round" stroke-linejoin="round"></path><path d="M 15.744,6.168l-2.82,5.729 " stroke="#000000" fill="none" stroke-width="1.5" stroke-linecap="round" stroke-linejoin="round"></path><path d="M 15.14,4.326 c-0.335,0.675-0.068,1.494,0.6,1.842c0.662,0.334,1.469,0.068,1.803-0.593c0.003-0.007,0.007-0.014,0.01-0.021 c0.815-1.261,0.557-2.932-0.6-3.888C17.154,3.3,15.945,2.689,15.14,4.326z " stroke="#000000" fill="none" stroke-width="1.5" stroke-linecap="round" stroke-linejoin="round"></path><path d="M 8.643,5.159C8.852,5.161,9.02,5.331,9.018,5.54 c0,0,0,0,0,0 " stroke="#000000" fill="none" stroke-width="1.5" stroke-linecap="round" stroke-linejoin="round"></path><path d="M 8.268,5.54C8.266,5.332,8.433,5.161,8.641,5.159c0.001,0,0.001,0,0.002,0 " stroke="#000000" fill="none" stroke-width="1.5" stroke-linecap="round" stroke-linejoin="round"></path><path d="M 8.643,5.921 C8.434,5.919,8.266,5.749,8.268,5.54c0,0,0,0,0,0 " stroke="#000000" fill="none" stroke-width="1.5" stroke-linecap="round" stroke-linejoin="round"></path><path d="M 9.018,5.54C9.02,5.749,8.852,5.919,8.643,5.921c0,0,0,0,0,0 " stroke="#000000" fill="none" stroke-width="1.5" stroke-linecap="round" stroke-linejoin="round"></path><path d="M 10.893,2.909 c0.209,0.002,0.377,0.172,0.375,0.381c0,0,0,0,0,0 " stroke="#000000" fill="none" stroke-width="1.5" stroke-linecap="round" stroke-linejoin="round"></path><path d="M 10.518,3.29c-0.002-0.208,0.165-0.379,0.373-0.381c0.001,0,0.001,0,0.002,0 " stroke="#000000" fill="none" stroke-width="1.5" stroke-linecap="round" stroke-linejoin="round"></path><path d="M 10.893,3.671c-0.209-0.002-0.377-0.172-0.375-0.381c0,0,0,0,0,0 " stroke="#000000" fill="none" stroke-width="1.5" stroke-linecap="round" stroke-linejoin="round"></path><path d="M 11.268,3.29c0.002,0.209-0.166,0.379-0.375,0.381c0,0,0,0,0,0" stroke="#000000" fill="none" stroke-width="1.5" stroke-linecap="round" stroke-linejoin="round"></path></g></svg>