<svg xmlns="http://www.w3.org/2000/svg" version="1.1" xmlns:xlink="http://www.w3.org/1999/xlink" xmlns:svgjs="http://svgjs.com/svgjs" viewBox="0 0 40 40" width="40" height="40"><title>Exported from Streamline App (https://app.streamlineicons.com)</title><g transform="matrix(1.6666666666666667,0,0,1.6666666666666667,0,0)"><path d="M 5.67,22.63H0.81V8.7h4.86V22.63z " stroke="#f06e9c" fill="none" stroke-width="1.5" stroke-linecap="round" stroke-linejoin="round"></path><path d="M 15.76,13.24c-1.182,0-2.14,0.958-2.14,2.14l0,0v7.25H8.51V8.7h5.11v1.59 c1.198-1.014,2.711-1.58,4.28-1.6c3.17,0,5.37,2.35,5.37,6.81v7.13H17.9v-7.25c0.006-1.182-0.948-2.144-2.13-2.15 c-0.003,0-0.007,0-0.01,0V13.24z " stroke="#f06e9c" fill="none" stroke-width="1.5" stroke-linecap="round" stroke-linejoin="round"></path><path d="M 5.76,3.88c0,1.381-1.119,2.5-2.5,2.5s-2.5-1.119-2.5-2.5s1.119-2.5,2.5-2.5 c1.373,0.011,2.48,1.127,2.48,2.5L5.76,3.88z" stroke="#f06e9c" fill="none" stroke-width="1.5" stroke-linecap="round" stroke-linejoin="round"></path></g></svg>