<svg xmlns="http://www.w3.org/2000/svg" version="1.1" xmlns:xlink="http://www.w3.org/1999/xlink" xmlns:svgjs="http://svgjs.com/svgjs" viewBox="0 0 24 24" height="24" width="24"><title>Exported from Streamline App (https://app.streamlineicons.com)</title><g transform="matrix(1,0,0,1,0,0)"><path d="M 19.5,12.5V6.473C19.499,3.174,16.824,0.5,13.525,0.5H1.5c-0.552,0-1,0.448-1,1v21c0,0.552,0.448,1,1,1h3 " stroke="#000000" fill="none" stroke-width="1" stroke-linecap="round" stroke-linejoin="round"></path><path d="M 14.5,0.579V4.5c0,0.552,0.448,1,1,1h3.92 " stroke="#000000" fill="none" stroke-width="1" stroke-linecap="round" stroke-linejoin="round"></path><path d="M 7.5,15.5c2.209,0,4,1.791,4,4s-1.791,4-4,4V15.5z " stroke="#000000" fill="none" stroke-width="1" stroke-linecap="round" stroke-linejoin="round"></path><path d="M 17.5,21.5c0,1.105-0.895,2-2,2 s-2-0.895-2-2v-4c0-1.105,0.895-2,2-2s2,0.895,2,2V21.5z " stroke="#000000" fill="none" stroke-width="1" stroke-linecap="round" stroke-linejoin="round"></path><path d="M 23.5,23.5c-2.209,0-4-1.791-4-4s1.791-4,4-4" stroke="#000000" fill="none" stroke-width="1" stroke-linecap="round" stroke-linejoin="round"></path></g></svg>