<svg xmlns="http://www.w3.org/2000/svg" version="1.1" xmlns:xlink="http://www.w3.org/1999/xlink" xmlns:svgjs="http://svgjs.com/svgjs" viewBox="0 0 40 40" width="40" height="40"><title>Exported from Streamline App (https://app.streamlineicons.com)</title><g transform="matrix(1.6666666666666667,0,0,1.6666666666666667,0,0)"><path d="M 23.18,6.71l-2.1-0.9l1.1-2.4l-2.56,0.85c-0.815-0.76-1.885-1.188-3-1.2c-2.483,0.005-4.495,2.017-4.5,4.5v1 c-3.54,0.73-6.63-1.2-9.5-4.5c-0.5,2.667,0,4.667,1.5,6l-3.29-0.5c0.262,2.186,2.052,3.871,4.25,4l-2.75,1c1,2,2.82,2.31,5.25,2.5 c-1.986,1.355-4.346,2.054-6.75,2c12.76,5.67,20.25-2.66,20.25-10V8.23L23.18,6.71z" stroke="#f06e9c" fill="none" stroke-width="1.5" stroke-linecap="round" stroke-linejoin="round"></path></g></svg>