<svg xmlns="http://www.w3.org/2000/svg" viewBox="0 0 24 24">
  <defs>
  </defs>
  <path d="M21.7 5.46Q20.8 6.78 19.53 7.7 19.54 7.89 19.54 8.26 19.54 10 19.03 11.74T17.48 15.07 15.01 17.89 11.56 19.84 7.23 20.57Q3.6 20.57 0.59 18.63 1.06 18.68 1.63 18.68 4.65 18.68 7 16.83 5.6 16.81 4.49 15.97T2.96 13.83Q3.4 13.9 3.78 13.9 4.35 13.9 4.92 13.75 3.42 13.45 2.43 12.26T1.45 9.51V9.46Q2.36 9.96 3.4 10 2.52 9.42 2 8.46T1.47 6.4Q1.47 5.22 2.06 4.22 3.68 6.21 6.01 7.41T10.98 8.75Q10.88 8.24 10.88 7.75 10.88 5.96 12.14 4.69T15.2 3.43Q17.08 3.43 18.36 4.79 19.82 4.51 21.11 3.75 20.61 5.29 19.21 6.13 20.45 6 21.7 5.46Z">
  </path>
</svg>
